<svg id="visual" viewBox="0 0 900 600" width="900" height="600" xmlns="http://www.w3.org/2000/svg" xmlns:xlink="http://www.w3.org/1999/xlink" version="1.1"><rect x="0" y="0" width="900" height="600" fill="#fff"></rect><defs><linearGradient id="grad1_0" x1="33.3%" y1="0%" x2="100%" y2="100%"><stop offset="20%" stop-color="#ffffff" stop-opacity="1"></stop><stop offset="80%" stop-color="#ffffff" stop-opacity="1"></stop></linearGradient></defs><defs><linearGradient id="grad2_0" x1="0%" y1="0%" x2="66.7%" y2="100%"><stop offset="20%" stop-color="#ffffff" stop-opacity="1"></stop><stop offset="80%" stop-color="#ffffff" stop-opacity="1"></stop></linearGradient></defs><g transform="translate(900, 0)"><path d="M0 459.7C-63.6 448.7 -127.3 437.8 -166.1 401C-204.9 364.2 -219 301.6 -264.5 264.5C-310 227.4 -386.9 215.7 -424.7 175.9C-462.5 136.1 -461.1 68 -459.7 0L0 0Z" fill="#fff9de"></path></g><g transform="translate(0, 600)"><path d="M0 -459.7C50.5 -418.8 101 -377.9 143.9 -347.4C186.7 -316.8 221.9 -296.7 272.9 -272.9C324 -249.2 390.9 -222 424.7 -175.9C458.5 -129.8 459.1 -64.9 459.7 0L0 0Z" fill="#fff9de"></path></g></svg>