<svg xmlns="http://www.w3.org/2000/svg" xmlns:xlink="http://www.w3.org/1999/xlink" width="500" zoomAndPan="magnify" viewBox="0 0 375 374.999991" height="500" preserveAspectRatio="xMidYMid meet" version="1.0"><defs><clipPath id="cdf2c4fbbe"><path d="M 84 55 L 288 55 L 288 320.617188 L 84 320.617188 Z M 84 55 " clip-rule="nonzero"/></clipPath></defs><g clip-path="url(#cdf2c4fbbe)"><path fill="#7f9f80" d="M 278.332031 171.929688 C 270.722656 243.339844 207.542969 296.484375 188.363281 311.074219 C 187.101562 312.023438 185.414062 312.039062 184.171875 311.09375 C 162.886719 294.914062 93.445312 236.042969 93.445312 157.960938 C 93.445312 132.171875 103.65625 108.144531 122.214844 90.328125 C 139.636719 73.597656 162.230469 64.523438 186.222656 64.523438 C 187.515625 64.523438 188.8125 64.558594 190.105469 64.609375 C 215.183594 65.613281 238.191406 76.859375 254.941406 96.246094 C 272.726562 116.855469 281.246094 144.453125 278.332031 171.929688 Z M 261.617188 90.484375 C 243.265625 69.214844 217.996094 56.902344 190.464844 55.78125 C 162.542969 54.574219 136.203125 64.664062 116.089844 83.964844 C 95.789062 103.453125 84.613281 129.742188 84.613281 157.960938 C 84.613281 240.113281 156.730469 301.3125 178.839844 318.128906 C 181.015625 319.785156 183.636719 320.613281 186.257812 320.613281 C 188.878906 320.613281 191.519531 319.785156 193.710938 318.113281 C 213.597656 302.96875 279.125 247.789062 287.109375 172.863281 C 290.300781 142.972656 281.003906 112.941406 261.617188 90.484375 " fill-opacity="1" fill-rule="nonzero"/></g><path fill="#7f9f80" d="M 237.210938 212.136719 L 241.074219 157.027344 C 245.023438 156.148438 247.992188 152.628906 247.992188 148.421875 L 247.992188 139.589844 C 247.992188 134.726562 244.023438 130.757812 239.160156 130.757812 L 239.160156 126.34375 C 239.160156 119.03125 233.226562 113.097656 225.914062 113.097656 L 211.699219 113.097656 L 209.785156 105.472656 C 208.320312 99.558594 203.023438 95.433594 196.933594 95.433594 L 175.410156 95.433594 C 169.320312 95.433594 164.023438 99.558594 162.558594 105.472656 L 160.644531 113.097656 L 146.429688 113.097656 C 139.117188 113.097656 133.183594 119.03125 133.183594 126.34375 L 133.183594 130.757812 C 128.320312 130.757812 124.351562 134.726562 124.351562 139.589844 L 124.351562 148.421875 C 124.351562 152.628906 127.320312 156.148438 131.269531 157.027344 L 135.132812 212.136719 C 120.386719 198.425781 111.105469 178.917969 111.105469 157.253906 C 111.105469 115.855469 144.777344 82.1875 186.171875 82.1875 C 227.566406 82.1875 261.238281 115.855469 261.238281 157.253906 C 261.238281 178.917969 251.957031 198.425781 237.210938 212.136719 Z M 169.75 113.097656 L 171.113281 107.613281 C 171.613281 105.644531 173.375 104.265625 175.410156 104.265625 L 196.933594 104.265625 C 198.96875 104.265625 200.730469 105.644531 201.230469 107.613281 L 202.59375 113.097656 Z M 225.914062 121.929688 C 228.34375 121.929688 230.328125 123.910156 230.328125 126.34375 L 230.328125 130.757812 L 142.015625 130.757812 L 142.015625 126.34375 C 142.015625 123.910156 144 121.929688 146.429688 121.929688 Z M 133.183594 148.421875 L 133.183594 139.589844 L 239.160156 139.589844 L 239.175781 148.421875 Z M 140.136719 157.253906 L 232.207031 157.253906 L 227.84375 219.640625 C 223.375 222.640625 218.546875 225.109375 213.476562 227.109375 L 217.0625 175.226562 C 217.238281 172.792969 215.40625 170.671875 212.976562 170.515625 C 210.578125 170.429688 208.421875 172.171875 208.265625 174.605469 L 204.421875 229.972656 C 199.953125 231.09375 195.332031 231.816406 190.585938 232.09375 L 190.585938 174.914062 C 190.585938 172.484375 188.605469 170.5 186.171875 170.5 C 183.738281 170.5 181.757812 172.484375 181.757812 174.914062 L 181.757812 232.09375 C 177.011719 231.816406 172.390625 231.09375 167.921875 229.972656 L 164.078125 174.605469 C 163.921875 172.171875 161.765625 170.414062 159.367188 170.515625 C 156.9375 170.671875 155.105469 172.792969 155.28125 175.226562 L 158.867188 227.109375 C 153.796875 225.109375 148.96875 222.640625 144.5 219.640625 Z M 186.171875 73.355469 C 139.910156 73.355469 102.273438 110.992188 102.273438 157.253906 C 102.273438 203.511719 139.910156 241.148438 186.171875 241.148438 C 232.433594 241.148438 270.070312 203.511719 270.070312 157.253906 C 270.070312 110.992188 232.433594 73.355469 186.171875 73.355469 " fill-opacity="1" fill-rule="nonzero"/></svg>