<svg xmlns="http://www.w3.org/2000/svg" xmlns:xlink="http://www.w3.org/1999/xlink" width="500" zoomAndPan="magnify" viewBox="0 0 375 374.999991" height="500" preserveAspectRatio="xMidYMid meet" version="1.0"><defs><clipPath id="6fac371f8c"><path d="M 80 130.027344 L 294 130.027344 L 294 251 L 80 251 Z M 80 130.027344 " clip-rule="nonzero"/></clipPath></defs><g clip-path="url(#6fac371f8c)"><path fill="#FFA632" d="M 187.140625 130.554688 C 146.023438 130.554688 108.179688 149.300781 83.320312 181.976562 C 79.441406 187.066406 79.441406 194.175781 83.316406 199.257812 C 108.179688 231.941406 146.023438 250.6875 187.140625 250.6875 C 228.257812 250.6875 266.101562 231.941406 290.960938 199.261719 C 294.839844 194.175781 294.839844 187.074219 290.964844 181.984375 C 266.101562 149.300781 228.257812 130.554688 187.140625 130.554688 Z M 279.640625 190.640625 C 257.488281 219.757812 223.773438 236.457031 187.140625 236.457031 C 150.507812 236.457031 116.792969 219.757812 94.640625 190.597656 C 116.792969 161.484375 150.507812 144.785156 187.140625 144.785156 C 223.773438 144.785156 257.488281 161.484375 279.640625 190.597656 C 279.640625 190.601562 279.640625 190.636719 279.640625 190.640625 Z M 279.640625 190.640625 " fill-opacity="1" fill-rule="nonzero"/></g><path fill="#FFA632" d="M 187.140625 148.96875 C 164.175781 148.96875 145.492188 167.652344 145.492188 190.621094 C 145.492188 213.585938 164.175781 232.269531 187.140625 232.269531 C 210.109375 232.269531 228.789062 213.585938 228.789062 190.621094 C 228.789062 167.652344 210.109375 148.96875 187.140625 148.96875 Z M 187.140625 218.039062 C 172.023438 218.039062 159.71875 205.738281 159.71875 190.621094 C 159.71875 175.5 172.023438 163.199219 187.140625 163.199219 C 202.257812 163.199219 214.5625 175.5 214.5625 190.621094 C 214.5625 205.738281 202.257812 218.039062 187.140625 218.039062 Z M 187.140625 218.039062 " fill-opacity="1" fill-rule="nonzero"/></svg>