<svg xmlns="http://www.w3.org/2000/svg" xmlns:xlink="http://www.w3.org/1999/xlink" width="500" zoomAndPan="magnify" viewBox="0 0 375 374.999991" height="500" preserveAspectRatio="xMidYMid meet" version="1.0"><defs><clipPath id="5bb1d941f8"><path d="M 38.539062 38.539062 L 336.289062 38.539062 L 336.289062 336.289062 L 38.539062 336.289062 Z M 38.539062 38.539062 " clip-rule="nonzero"/></clipPath></defs><g clip-path="url(#5bb1d941f8)"><path fill="#7f9f80" d="M 187.496094 38.539062 C 105.363281 38.539062 38.539062 105.363281 38.539062 187.496094 C 38.539062 269.632812 105.363281 336.453125 187.496094 336.453125 C 269.632812 336.453125 336.453125 269.632812 336.453125 187.496094 C 336.453125 105.363281 269.632812 38.539062 187.496094 38.539062 Z M 187.496094 316.59375 C 116.3125 316.59375 58.402344 258.683594 58.402344 187.496094 C 58.402344 116.3125 116.3125 58.402344 187.496094 58.402344 C 258.683594 58.402344 316.59375 116.3125 316.59375 187.496094 C 316.59375 258.683594 258.683594 316.59375 187.496094 316.59375 Z M 187.496094 316.59375 " fill-opacity="1" fill-rule="nonzero"/></g><path fill="#7f9f80" d="M 239.453125 177.566406 L 197.425781 177.566406 L 197.425781 135.542969 C 197.425781 130.058594 192.980469 125.609375 187.496094 125.609375 C 182.011719 125.609375 177.566406 130.058594 177.566406 135.542969 L 177.566406 177.566406 L 135.542969 177.566406 C 130.058594 177.566406 125.609375 182.011719 125.609375 187.496094 C 125.609375 192.980469 130.058594 197.425781 135.542969 197.425781 L 177.566406 197.425781 L 177.566406 239.453125 C 177.566406 244.9375 182.011719 249.382812 187.496094 249.382812 C 192.980469 249.382812 197.425781 244.9375 197.425781 239.453125 L 197.425781 197.425781 L 239.453125 197.425781 C 244.9375 197.425781 249.382812 192.980469 249.382812 187.496094 C 249.382812 182.011719 244.9375 177.566406 239.453125 177.566406 Z M 239.453125 177.566406 " fill-opacity="1" fill-rule="nonzero"/></svg>