<svg xmlns="http://www.w3.org/2000/svg" xmlns:xlink="http://www.w3.org/1999/xlink" width="500" zoomAndPan="magnify" viewBox="0 0 375 374.999991" height="500" preserveAspectRatio="xMidYMid meet" version="1.0"><defs><clipPath id="b96ecb5526"><path d="M 123 319 L 239 319 L 239 355.484375 L 123 355.484375 Z M 123 319 " clip-rule="nonzero"/></clipPath><clipPath id="0f748d2667"><path d="M 168 19.484375 L 177 19.484375 L 177 47 L 168 47 Z M 168 19.484375 " clip-rule="nonzero"/></clipPath></defs><path fill="#6e9277" d="M 220.351562 327.257812 C 218.269531 327.257812 216.578125 325.566406 216.578125 323.484375 C 216.578125 300 225.132812 284.898438 235.019531 267.429688 C 236.515625 264.769531 238.046875 262.070312 239.578125 259.28125 C 247.488281 244.847656 248.105469 226.890625 248.105469 226.722656 C 248.171875 224.640625 249.925781 223.027344 251.980469 223.054688 C 254.066406 223.121094 255.703125 224.847656 255.648438 226.929688 C 255.625 227.742188 254.996094 246.839844 246.191406 262.910156 C 244.632812 265.726562 243.089844 268.464844 241.582031 271.136719 C 232.21875 287.691406 224.125 301.992188 224.125 323.484375 C 224.125 325.566406 222.433594 327.257812 220.351562 327.257812 " fill-opacity="1" fill-rule="nonzero"/><path fill="#6e9277" d="M 207.136719 200.5 C 207.097656 200.5 207.046875 200.5 207.003906 200.5 C 204.921875 200.433594 203.300781 198.691406 203.363281 196.609375 C 203.507812 192.210938 203.679688 188.332031 203.824219 184.914062 C 204.515625 168.253906 204.570312 163.800781 201.636719 161.824219 C 198.347656 159.585938 194.589844 161.167969 188.261719 167.429688 C 186.785156 168.882812 184.398438 168.882812 182.933594 167.402344 C 181.464844 165.921875 181.480469 163.527344 182.957031 162.058594 C 186.914062 158.15625 196.160156 149.015625 205.851562 155.578125 C 212.402344 159.992188 212.140625 166.355469 211.355469 185.230469 C 211.210938 188.632812 211.054688 192.484375 210.894531 196.859375 C 210.832031 198.902344 209.152344 200.5 207.136719 200.5 " fill-opacity="1" fill-rule="nonzero"/><path fill="#6e9277" d="M 229.507812 213.585938 C 229.46875 213.585938 229.429688 213.585938 229.375 213.570312 C 227.292969 213.507812 225.667969 211.765625 225.734375 209.683594 C 225.890625 205.28125 226.050781 201.402344 226.195312 198 C 226.886719 181.324219 226.941406 176.886719 224.007812 174.894531 C 220.71875 172.667969 216.972656 174.238281 210.632812 180.5 C 209.152344 181.96875 206.769531 181.953125 205.304688 180.472656 C 203.847656 178.996094 203.847656 176.609375 205.328125 175.144531 C 209.285156 171.242188 218.53125 162.074219 228.238281 168.648438 C 234.773438 173.074219 234.511719 179.425781 233.722656 198.300781 C 233.582031 201.707031 233.421875 205.554688 233.277344 209.945312 C 233.199219 211.972656 231.539062 213.585938 229.507812 213.585938 " fill-opacity="1" fill-rule="nonzero"/><path fill="#6e9277" d="M 251.878906 230.597656 C 251.839844 230.597656 251.800781 230.597656 251.746094 230.585938 C 249.675781 230.519531 248.039062 228.777344 248.105469 226.695312 C 248.261719 222.292969 248.417969 218.417969 248.5625 215.011719 C 249.257812 198.339844 249.324219 193.898438 246.375 191.910156 C 243.089844 189.683594 239.34375 191.253906 233.015625 197.515625 C 231.539062 198.980469 229.152344 198.96875 227.6875 197.488281 C 226.21875 196.007812 226.234375 193.625 227.710938 192.15625 C 231.65625 188.253906 240.902344 179.085938 250.605469 185.660156 C 257.144531 190.089844 256.878906 196.453125 256.09375 215.328125 C 255.949219 218.71875 255.792969 222.570312 255.648438 226.957031 C 255.585938 228.988281 253.90625 230.597656 251.878906 230.597656 " fill-opacity="1" fill-rule="nonzero"/><g clip-path="url(#b96ecb5526)"><path fill="#6e9277" d="M 235.191406 355.140625 C 233.097656 355.140625 231.417969 353.453125 231.417969 351.371094 L 231.417969 331.710938 C 231.417969 329.246094 229.414062 327.257812 226.964844 327.257812 L 135.703125 327.257812 C 133.253906 327.257812 131.25 329.246094 131.25 331.710938 L 131.25 351.371094 C 131.25 353.453125 129.5625 355.140625 127.476562 355.140625 C 125.394531 355.140625 123.707031 353.453125 123.707031 351.371094 L 123.707031 331.710938 C 123.707031 325.097656 129.089844 319.714844 135.703125 319.714844 L 226.964844 319.714844 C 233.582031 319.714844 238.949219 325.097656 238.949219 331.710938 L 238.949219 351.371094 C 238.949219 353.453125 237.273438 355.140625 235.191406 355.140625 " fill-opacity="1" fill-rule="nonzero"/></g><path fill="#6e9277" d="M 143.457031 327.257812 C 141.375 327.257812 139.683594 325.566406 139.683594 323.484375 L 139.683594 296.425781 C 139.683594 257.917969 129.757812 245.949219 116.019531 229.394531 L 113.855469 226.800781 C 113.28125 226.015625 102.539062 211.175781 103.8125 193.714844 C 104.414062 185.554688 110.542969 179.453125 118.714844 178.863281 C 126.785156 178.222656 133.671875 183.382812 135.414062 191.28125 C 135.742188 192.761719 135.980469 194.332031 136.121094 195.957031 C 136.621094 201.890625 139.921875 206.945312 144.949219 209.472656 C 147.609375 210.808594 150.6875 210.664062 153.214844 209.117188 C 155.730469 207.558594 157.234375 204.863281 157.234375 201.890625 L 157.234375 121.15625 C 157.234375 112.789062 164.046875 105.976562 172.414062 105.976562 C 180.785156 105.976562 187.59375 112.789062 187.59375 121.15625 L 187.59375 188.609375 C 187.59375 190.691406 185.90625 192.378906 183.824219 192.378906 C 181.742188 192.378906 180.050781 190.691406 180.050781 188.609375 L 180.050781 121.15625 C 180.050781 116.9375 176.632812 113.507812 172.414062 113.507812 C 168.210938 113.507812 164.78125 116.9375 164.78125 121.15625 L 164.78125 201.890625 C 164.78125 207.496094 161.9375 212.589844 157.171875 215.523438 C 152.414062 218.46875 146.585938 218.730469 141.570312 216.21875 C 134.171875 212.496094 129.3125 205.164062 128.605469 196.585938 C 128.5 195.300781 128.316406 194.054688 128.054688 192.902344 C 126.902344 187.703125 122.605469 186.132812 119.253906 186.382812 C 115.847656 186.628906 111.734375 188.84375 111.328125 194.265625 C 110.253906 208.988281 119.710938 222.046875 119.816406 222.175781 L 121.808594 224.574219 C 136.003906 241.679688 147.230469 255.195312 147.230469 296.425781 L 147.230469 323.484375 C 147.230469 325.566406 145.539062 327.257812 143.457031 327.257812 " fill-opacity="1" fill-rule="nonzero"/><path fill="#6e9277" d="M 205.210938 123.839844 C 203.128906 123.839844 201.453125 122.152344 201.453125 120.082031 C 201.453125 104.023438 188.382812 90.96875 172.335938 90.96875 C 156.28125 90.96875 143.222656 104.023438 143.222656 120.082031 C 143.222656 122.152344 141.53125 123.839844 139.460938 123.839844 C 137.378906 123.839844 135.691406 122.152344 135.691406 120.082031 C 135.691406 99.859375 152.128906 83.421875 172.335938 83.421875 C 192.546875 83.421875 208.984375 99.859375 208.984375 120.082031 C 208.984375 122.152344 207.292969 123.839844 205.210938 123.839844 " fill-opacity="1" fill-rule="nonzero"/><path fill="#6e9277" d="M 117.09375 143.933594 C 115.546875 143.933594 114.105469 142.976562 113.542969 141.457031 C 111.054688 134.609375 109.796875 127.417969 109.796875 120.082031 C 109.796875 85.582031 137.851562 57.527344 172.335938 57.527344 C 206.824219 57.527344 234.878906 85.582031 234.878906 120.082031 C 234.878906 127.078125 233.722656 133.953125 231.457031 140.5 C 230.777344 142.480469 228.628906 143.515625 226.664062 142.832031 C 224.699219 142.152344 223.652344 140.015625 224.332031 138.039062 C 226.324219 132.277344 227.332031 126.226562 227.332031 120.082031 C 227.332031 89.75 202.65625 65.074219 172.335938 65.074219 C 142.015625 65.074219 117.339844 89.75 117.339844 120.082031 C 117.339844 126.539062 118.441406 132.867188 120.628906 138.878906 C 121.347656 140.828125 120.339844 142.988281 118.375 143.710938 C 117.957031 143.855469 117.523438 143.933594 117.09375 143.933594 " fill-opacity="1" fill-rule="nonzero"/><g clip-path="url(#0f748d2667)"><path fill="#6e9277" d="M 172.335938 46.226562 C 170.253906 46.226562 168.566406 44.535156 168.566406 42.46875 L 168.566406 23.621094 C 168.566406 21.539062 170.253906 19.847656 172.335938 19.847656 C 174.417969 19.847656 176.109375 21.539062 176.109375 23.621094 L 176.109375 42.46875 C 176.109375 44.535156 174.417969 46.226562 172.335938 46.226562 " fill-opacity="1" fill-rule="nonzero"/></g><path fill="#6e9277" d="M 145.816406 50.914062 C 144.269531 50.914062 142.828125 49.957031 142.265625 48.425781 L 135.820312 30.71875 C 135.113281 28.765625 136.121094 26.605469 138.074219 25.886719 C 140.027344 25.179688 142.199219 26.1875 142.90625 28.140625 L 149.351562 45.847656 C 150.058594 47.8125 149.050781 49.972656 147.097656 50.679688 C 146.679688 50.835938 146.234375 50.914062 145.816406 50.914062 " fill-opacity="1" fill-rule="nonzero"/><path fill="#6e9277" d="M 122.488281 64.378906 C 121.414062 64.378906 120.339844 63.921875 119.59375 63.03125 L 107.480469 48.597656 C 106.144531 47 106.351562 44.628906 107.949219 43.277344 C 109.546875 41.941406 111.917969 42.152344 113.253906 43.75 L 125.371094 58.183594 C 126.707031 59.78125 126.496094 62.152344 124.910156 63.5 C 124.203125 64.089844 123.339844 64.378906 122.488281 64.378906 " fill-opacity="1" fill-rule="nonzero"/><path fill="#6e9277" d="M 222.1875 64.378906 C 221.335938 64.378906 220.46875 64.089844 219.761719 63.5 C 218.164062 62.152344 217.96875 59.78125 219.304688 58.183594 L 231.417969 43.75 C 232.753906 42.152344 235.125 41.941406 236.722656 43.277344 C 238.320312 44.628906 238.53125 47 237.195312 48.597656 L 225.082031 63.03125 C 224.332031 63.921875 223.257812 64.378906 222.1875 64.378906 " fill-opacity="1" fill-rule="nonzero"/><path fill="#6e9277" d="M 198.859375 50.914062 C 198.441406 50.914062 197.996094 50.835938 197.574219 50.679688 C 195.609375 49.972656 194.601562 47.8125 195.324219 45.847656 L 201.765625 28.140625 C 202.472656 26.1875 204.648438 25.191406 206.601562 25.886719 C 208.550781 26.605469 209.558594 28.765625 208.851562 30.71875 L 202.410156 48.425781 C 201.84375 49.957031 200.40625 50.914062 198.859375 50.914062 " fill-opacity="1" fill-rule="nonzero"/></svg>