<svg xmlns="http://www.w3.org/2000/svg" xmlns:xlink="http://www.w3.org/1999/xlink" width="500" zoomAndPan="magnify" viewBox="0 0 375 374.999991" height="500" preserveAspectRatio="xMidYMid meet" version="1.0"><defs><clipPath id="cb87fc43fb"><path d="M 152 97 L 173 97 L 173 187.496094 L 152 187.496094 Z M 152 97 " clip-rule="nonzero"/></clipPath><clipPath id="c74e493ebb"><path d="M 116.078125 100 L 135 100 L 135 138 L 116.078125 138 Z M 116.078125 100 " clip-rule="nonzero"/></clipPath><clipPath id="15c438efff"><path d="M 189 49.496094 L 230 49.496094 L 230 61 L 189 61 Z M 189 49.496094 " clip-rule="nonzero"/></clipPath></defs><g clip-path="url(#cb87fc43fb)"><path fill="#124076" d="M 170.964844 185.914062 C 172.613281 184.125 172.828125 182.042969 171.683594 179.035156 C 171.253906 177.960938 170.175781 172.65625 169.246094 167.28125 C 168.3125 161.90625 167.097656 156.03125 166.449219 154.238281 C 164.660156 149.007812 162.507812 138.328125 159.570312 120.050781 C 156.847656 103.640625 155.34375 97.980469 153.265625 97.261719 C 152.476562 97.046875 152.332031 98.195312 152.621094 102.925781 C 153.121094 112.527344 156.417969 137.539062 158.425781 147.144531 C 160.429688 156.53125 163.15625 176.097656 163.15625 181.183594 C 163.226562 184.839844 164.371094 186.558594 167.238281 187.132812 C 168.960938 187.492188 169.746094 187.203125 170.964844 185.914062 Z M 170.964844 185.914062 " fill-opacity="1" fill-rule="nonzero"/></g><g clip-path="url(#c74e493ebb)"><path fill="#124076" d="M 122.304688 136.894531 C 122.734375 136.320312 123.878906 132.738281 124.8125 128.867188 C 126.960938 119.695312 129.039062 112.742188 130.832031 109.085938 C 132.550781 105.433594 134.488281 100.703125 134.488281 100.128906 C 134.488281 99.914062 133.484375 100.628906 132.335938 101.777344 C 130.332031 103.710938 126.605469 109.515625 124.742188 113.601562 C 124.3125 114.605469 123.308594 116.828125 122.445312 118.621094 C 120.941406 121.988281 118.578125 127.722656 116.855469 132.449219 C 116.140625 134.457031 116.070312 135.53125 116.570312 136.535156 C 117.503906 138.257812 121.015625 138.472656 122.304688 136.894531 Z M 122.304688 136.894531 " fill-opacity="1" fill-rule="nonzero"/></g><path fill="#124076" d="M 208.519531 135.246094 C 210.886719 132.664062 210.097656 130.515625 205.222656 126.429688 C 202.785156 124.28125 196.40625 118.402344 191.105469 113.242188 C 173.472656 96.1875 169.675781 92.820312 167.597656 92.820312 C 165.734375 92.820312 168.3125 96.042969 179.207031 107.152344 C 190.386719 118.621094 197.269531 126.644531 200.78125 132.234375 C 201.855469 134.027344 203.144531 135.675781 203.574219 135.960938 C 205.007812 136.894531 207.375 136.535156 208.519531 135.246094 Z M 208.519531 135.246094 " fill-opacity="1" fill-rule="nonzero"/><path fill="#124076" d="M 264.636719 101.0625 C 266.070312 98.910156 265.496094 96.042969 263.488281 94.96875 C 262.699219 94.539062 260.191406 93.894531 257.96875 93.464844 C 255.675781 93.035156 248.796875 91.097656 242.707031 89.234375 C 236.542969 87.300781 228.660156 85.078125 225.148438 84.21875 C 221.5625 83.429688 218.050781 82.570312 217.261719 82.355469 C 216.476562 82.140625 211.171875 81.207031 205.4375 80.207031 C 199.703125 79.273438 194.472656 78.128906 193.757812 77.769531 C 191.894531 76.695312 183.222656 75.976562 183.222656 76.835938 C 183.222656 78.699219 190.601562 81.925781 201.136719 84.578125 C 220.488281 89.449219 233.386719 93.320312 248.726562 98.765625 C 254.960938 101.0625 260.835938 102.851562 261.769531 102.851562 C 262.773438 102.851562 263.917969 102.136719 264.636719 101.0625 Z M 264.636719 101.0625 " fill-opacity="1" fill-rule="nonzero"/><g clip-path="url(#15c438efff)"><path fill="#124076" d="M 207.230469 59.78125 C 208.804688 59.492188 213.75 59.207031 218.125 59.207031 C 225.21875 59.136719 226.363281 58.992188 227.65625 57.703125 C 228.445312 56.914062 229.089844 55.480469 229.089844 54.476562 C 229.089844 52.328125 226.796875 49.820312 224.789062 49.820312 C 223.929688 49.820312 222.351562 50.320312 221.203125 50.894531 C 218.265625 52.398438 211.53125 53.902344 201.136719 55.195312 C 196.265625 55.839844 191.605469 56.699219 190.816406 57.128906 C 189.527344 57.84375 189.601562 57.988281 191.894531 59.207031 C 194.542969 60.640625 201.925781 60.925781 207.230469 59.78125 Z M 207.230469 59.78125 " fill-opacity="1" fill-rule="nonzero"/></g></svg>