<svg xmlns="http://www.w3.org/2000/svg" xmlns:xlink="http://www.w3.org/1999/xlink" width="500" zoomAndPan="magnify" viewBox="0 0 375 374.999991" height="500" preserveAspectRatio="xMidYMid meet" version="1.0"><defs><clipPath id="68e6b83731"><path d="M 169 137 L 259.917969 137 L 259.917969 158 L 169 158 Z M 169 137 " clip-rule="nonzero"/></clipPath><clipPath id="44bd89089f"><path d="M 172 175 L 211 175 L 211 193.652344 L 172 193.652344 Z M 172 175 " clip-rule="nonzero"/></clipPath></defs><g clip-path="url(#68e6b83731)"><path fill="#124076" d="M 258.335938 138.765625 C 256.546875 137.117188 254.46875 136.902344 251.457031 138.046875 C 250.382812 138.476562 245.078125 139.554688 239.703125 140.484375 C 234.328125 141.417969 228.453125 142.636719 226.660156 143.28125 C 221.429688 145.070312 210.75 147.222656 192.476562 150.160156 C 176.0625 152.882812 170.402344 154.386719 169.683594 156.464844 C 169.46875 157.253906 170.617188 157.398438 175.347656 157.113281 C 184.949219 156.609375 209.960938 153.3125 219.566406 151.308594 C 228.953125 149.300781 248.519531 146.578125 253.605469 146.578125 C 257.261719 146.503906 258.980469 145.359375 259.554688 142.492188 C 259.914062 140.773438 259.628906 139.984375 258.335938 138.765625 Z M 258.335938 138.765625 " fill-opacity="1" fill-rule="nonzero"/></g><g clip-path="url(#44bd89089f)"><path fill="#124076" d="M 209.316406 187.425781 C 208.742188 186.996094 205.160156 185.851562 201.289062 184.917969 C 192.117188 182.769531 185.164062 180.691406 181.511719 178.898438 C 177.855469 177.179688 173.125 175.242188 172.550781 175.242188 C 172.335938 175.242188 173.054688 176.246094 174.199219 177.394531 C 176.132812 179.398438 181.941406 183.128906 186.023438 184.992188 C 187.027344 185.421875 189.25 186.421875 191.042969 187.285156 C 194.410156 188.789062 200.144531 191.152344 204.875 192.875 C 206.878906 193.589844 207.957031 193.664062 208.957031 193.160156 C 210.679688 192.230469 210.894531 188.71875 209.316406 187.425781 Z M 209.316406 187.425781 " fill-opacity="1" fill-rule="nonzero"/></g><path fill="#124076" d="M 207.667969 101.210938 C 205.089844 98.847656 202.9375 99.632812 198.851562 104.507812 C 196.703125 106.945312 190.828125 113.324219 185.667969 118.625 C 168.609375 136.257812 165.242188 140.054688 165.242188 142.132812 C 165.242188 143.996094 168.464844 141.417969 179.574219 130.523438 C 191.042969 119.34375 199.066406 112.464844 204.660156 108.953125 C 206.449219 107.875 208.097656 106.585938 208.386719 106.15625 C 209.316406 104.722656 208.957031 102.359375 207.667969 101.210938 Z M 207.667969 101.210938 " fill-opacity="1" fill-rule="nonzero"/><path fill="#124076" d="M 173.484375 45.09375 C 171.332031 43.664062 168.464844 44.234375 167.390625 46.242188 C 166.960938 47.03125 166.316406 49.539062 165.886719 51.761719 C 165.457031 54.054688 163.519531 60.933594 161.65625 67.027344 C 159.722656 73.1875 157.5 81.074219 156.640625 84.585938 C 155.851562 88.167969 154.992188 91.679688 154.777344 92.46875 C 154.5625 93.257812 153.632812 98.558594 152.628906 104.292969 C 151.695312 110.027344 150.550781 115.257812 150.191406 115.976562 C 149.117188 117.839844 148.398438 126.507812 149.257812 126.507812 C 151.121094 126.507812 154.347656 119.128906 157 108.59375 C 161.871094 89.242188 165.742188 76.34375 171.191406 61.003906 C 173.484375 54.769531 175.273438 48.894531 175.273438 47.960938 C 175.273438 46.957031 174.558594 45.8125 173.484375 45.09375 Z M 173.484375 45.09375 " fill-opacity="1" fill-rule="nonzero"/><path fill="#124076" d="M 132.203125 102.5 C 131.914062 100.925781 131.628906 95.980469 131.628906 91.609375 C 131.558594 84.511719 131.414062 83.367188 130.125 82.074219 C 129.335938 81.289062 127.902344 80.644531 126.898438 80.644531 C 124.75 80.644531 122.242188 82.9375 122.242188 84.941406 C 122.242188 85.800781 122.742188 87.378906 123.316406 88.527344 C 124.820312 91.464844 126.324219 98.199219 127.617188 108.59375 C 128.261719 113.464844 129.121094 118.125 129.550781 118.914062 C 130.265625 120.203125 130.410156 120.132812 131.628906 117.839844 C 133.0625 115.1875 133.347656 107.804688 132.203125 102.5 Z M 132.203125 102.5 " fill-opacity="1" fill-rule="nonzero"/></svg>