<svg xmlns="http://www.w3.org/2000/svg" xmlns:xlink="http://www.w3.org/1999/xlink" width="500" zoomAndPan="magnify" viewBox="0 0 375 374.999991" height="500" preserveAspectRatio="xMidYMid meet" version="1.0"><defs><clipPath id="8a6c8da496"><path d="M 116.078125 134 L 199 134 L 199 161 L 116.078125 161 Z M 116.078125 134 " clip-rule="nonzero"/></clipPath><clipPath id="7ace6e396d"><path d="M 153 176 L 193 176 L 193 187.8125 L 153 187.8125 Z M 153 176 " clip-rule="nonzero"/></clipPath></defs><path fill="#124076" d="M 211.1875 51.394531 C 209.539062 53.183594 209.324219 55.265625 210.46875 58.273438 C 210.902344 59.347656 211.976562 64.652344 212.90625 70.027344 C 213.839844 75.402344 215.058594 81.277344 215.703125 83.070312 C 217.492188 88.300781 219.644531 98.980469 222.582031 117.257812 C 225.304688 133.667969 226.8125 139.328125 228.890625 140.046875 C 229.675781 140.261719 229.820312 139.113281 229.535156 134.382812 C 229.03125 124.78125 225.734375 99.769531 223.730469 90.164062 C 221.722656 80.777344 219 61.210938 219 56.125 C 218.925781 52.46875 217.78125 50.75 214.914062 50.175781 C 213.195312 49.816406 212.40625 50.105469 211.1875 51.394531 Z M 211.1875 51.394531 " fill-opacity="1" fill-rule="nonzero"/><path fill="#124076" d="M 259.847656 100.414062 C 259.417969 100.988281 258.273438 104.570312 257.339844 108.441406 C 255.191406 117.613281 253.113281 124.566406 251.320312 128.222656 C 249.601562 131.875 247.664062 136.605469 247.664062 137.179688 C 247.664062 137.394531 248.667969 136.679688 249.816406 135.53125 C 251.824219 133.597656 255.550781 127.792969 257.414062 123.707031 C 257.84375 122.703125 258.847656 120.480469 259.707031 118.6875 C 261.210938 115.320312 263.578125 109.585938 265.296875 104.859375 C 266.011719 102.851562 266.085938 101.777344 265.582031 100.773438 C 264.652344 99.050781 261.140625 98.835938 259.847656 100.414062 Z M 259.847656 100.414062 " fill-opacity="1" fill-rule="nonzero"/><path fill="#124076" d="M 173.632812 102.0625 C 171.269531 104.640625 172.058594 106.792969 176.929688 110.878906 C 179.367188 113.027344 185.746094 118.90625 191.046875 124.066406 C 208.679688 141.121094 212.476562 144.488281 214.554688 144.488281 C 216.417969 144.488281 213.839844 141.265625 202.945312 130.15625 C 191.765625 118.6875 184.886719 110.664062 181.375 105.074219 C 180.296875 103.28125 179.007812 101.632812 178.578125 101.347656 C 177.144531 100.414062 174.78125 100.773438 173.632812 102.0625 Z M 173.632812 102.0625 " fill-opacity="1" fill-rule="nonzero"/><g clip-path="url(#8a6c8da496)"><path fill="#124076" d="M 117.519531 136.246094 C 116.085938 138.398438 116.65625 141.265625 118.664062 142.339844 C 119.453125 142.769531 121.960938 143.414062 124.183594 143.84375 C 126.476562 144.273438 133.355469 146.210938 139.449219 148.074219 C 145.613281 150.007812 153.496094 152.230469 157.007812 153.089844 C 160.589844 153.878906 164.101562 154.738281 164.890625 154.953125 C 165.679688 155.167969 170.980469 156.101562 176.714844 157.101562 C 182.449219 158.035156 187.679688 159.179688 188.398438 159.539062 C 190.261719 160.613281 198.933594 161.332031 198.933594 160.472656 C 198.933594 158.609375 191.550781 155.382812 181.015625 152.730469 C 161.664062 147.859375 148.765625 143.988281 133.429688 138.542969 C 127.191406 136.246094 121.316406 134.457031 120.382812 134.457031 C 119.382812 134.457031 118.234375 135.171875 117.519531 136.246094 Z M 117.519531 136.246094 " fill-opacity="1" fill-rule="nonzero"/></g><g clip-path="url(#7ace6e396d)"><path fill="#124076" d="M 174.921875 177.527344 C 173.347656 177.816406 168.402344 178.101562 164.03125 178.101562 C 156.933594 178.171875 155.789062 178.316406 154.5 179.605469 C 153.710938 180.394531 153.066406 181.828125 153.066406 182.832031 C 153.066406 184.980469 155.359375 187.488281 157.363281 187.488281 C 158.226562 187.488281 159.800781 186.988281 160.949219 186.414062 C 163.886719 184.910156 170.625 183.40625 181.015625 182.113281 C 185.886719 181.46875 190.546875 180.609375 191.335938 180.179688 C 192.625 179.464844 192.554688 179.320312 190.261719 178.101562 C 187.609375 176.667969 180.226562 176.382812 174.921875 177.527344 Z M 174.921875 177.527344 " fill-opacity="1" fill-rule="nonzero"/></g></svg>