<svg xmlns="http://www.w3.org/2000/svg" xmlns:xlink="http://www.w3.org/1999/xlink" width="500" zoomAndPan="magnify" viewBox="0 0 375 374.999991" height="500" preserveAspectRatio="xMidYMid meet" version="1.0"><defs><g/><clipPath id="05f7bdeeb9"><path d="M 34 169 L 110 169 L 110 248 L 34 248 Z M 34 169 " clip-rule="nonzero"/></clipPath><clipPath id="3e7a5e1204"><path d="M 124.003906 204.324219 L 82.714844 263.308594 L 18.199219 218.152344 L 59.488281 159.164062 Z M 124.003906 204.324219 " clip-rule="nonzero"/></clipPath><clipPath id="7283e5e7c6"><path d="M 124.003906 204.324219 L 82.714844 263.308594 L 18.199219 218.152344 L 59.488281 159.164062 Z M 124.003906 204.324219 " clip-rule="nonzero"/></clipPath><clipPath id="b79807fea2"><path d="M 11.734375 126.980469 L 59.734375 126.980469 L 59.734375 173.480469 L 11.734375 173.480469 Z M 11.734375 126.980469 " clip-rule="nonzero"/></clipPath><clipPath id="51cfe2a177"><path d="M 61 105 L 178 105 L 178 143 L 61 143 Z M 61 105 " clip-rule="nonzero"/></clipPath><clipPath id="8184533b14"><path d="M 65.257812 100.019531 L 180.027344 112.988281 L 166.296875 234.46875 L 51.527344 221.496094 Z M 65.257812 100.019531 " clip-rule="nonzero"/></clipPath><clipPath id="52625df1e0"><path d="M 65.257812 100.019531 L 180.027344 112.988281 L 166.296875 234.46875 L 51.527344 221.496094 Z M 65.257812 100.019531 " clip-rule="nonzero"/></clipPath><clipPath id="728f02f9df"><path d="M 57 191 L 91 191 L 91 225 L 57 225 Z M 57 191 " clip-rule="nonzero"/></clipPath><clipPath id="6436e24b01"><path d="M 65.257812 100.019531 L 180.027344 112.988281 L 166.296875 234.46875 L 51.527344 221.496094 Z M 65.257812 100.019531 " clip-rule="nonzero"/></clipPath><clipPath id="0da6ec71a1"><path d="M 65.257812 100.019531 L 180.027344 112.988281 L 166.296875 234.46875 L 51.527344 221.496094 Z M 65.257812 100.019531 " clip-rule="nonzero"/></clipPath><clipPath id="515f0b03c8"><path d="M 69 140 L 168 140 L 168 232 L 69 232 Z M 69 140 " clip-rule="nonzero"/></clipPath><clipPath id="eeec19dbea"><path d="M 65.257812 100.019531 L 180.027344 112.988281 L 166.296875 234.46875 L 51.527344 221.496094 Z M 65.257812 100.019531 " clip-rule="nonzero"/></clipPath><clipPath id="568691a163"><path d="M 65.257812 100.019531 L 180.027344 112.988281 L 166.296875 234.46875 L 51.527344 221.496094 Z M 65.257812 100.019531 " clip-rule="nonzero"/></clipPath></defs><rect x="-37.5" width="450" fill="#ffffff" y="-37.499999" height="449.999989" fill-opacity="1"/><rect x="-37.5" width="450" fill="#ffffff" y="-37.499999" height="449.999989" fill-opacity="1"/><rect x="-37.5" width="450" fill="#124076" y="-37.499999" height="449.999989" fill-opacity="1"/><g clip-path="url(#05f7bdeeb9)"><g clip-path="url(#3e7a5e1204)"><g clip-path="url(#7283e5e7c6)"><path fill="#ffffff" d="M 109.527344 221.769531 C 107.070312 228.484375 102.804688 234.386719 97.199219 238.824219 C 91.597656 243.265625 84.875 246.066406 77.78125 246.925781 C 70.683594 247.785156 63.488281 246.664062 56.988281 243.6875 C 50.488281 240.710938 44.941406 235.996094 40.953125 230.0625 C 36.96875 224.128906 34.699219 217.207031 34.402344 210.066406 C 34.101562 202.921875 35.785156 195.835938 39.261719 189.589844 C 42.738281 183.347656 47.875 178.183594 54.101562 174.675781 C 60.332031 171.167969 67.410156 169.449219 74.550781 169.710938 L 74.082031 182.519531 C 69.300781 182.34375 64.5625 183.492188 60.394531 185.839844 C 56.222656 188.191406 52.785156 191.644531 50.457031 195.824219 C 48.132812 200.007812 47.003906 204.75 47.207031 209.53125 C 47.40625 214.308594 48.921875 218.941406 51.589844 222.914062 C 54.261719 226.886719 57.972656 230.042969 62.324219 232.035156 C 66.675781 234.027344 71.492188 234.777344 76.242188 234.203125 C 80.992188 233.628906 85.492188 231.753906 89.242188 228.78125 C 92.992188 225.808594 95.847656 221.859375 97.492188 217.363281 Z M 109.527344 221.769531 " fill-opacity="1" fill-rule="nonzero"/></g></g></g><g clip-path="url(#b79807fea2)"><path fill="#f9e897" d="M 55.363281 163.261719 C 56.445312 163.261719 57.160156 163.980469 57.160156 165.0625 C 57.160156 166.144531 56.445312 166.863281 55.363281 166.863281 L 24.226562 166.863281 C 23.144531 166.863281 22.429688 166.144531 22.429688 165.0625 C 22.429688 163.980469 23.144531 163.261719 24.226562 163.261719 Z M 13.796875 148.152344 L 44.929688 148.152344 C 46.015625 148.152344 46.730469 148.867188 46.730469 149.949219 C 46.730469 150.972656 46.089844 151.667969 45.109375 151.742188 L 44.929688 151.75 L 13.796875 151.75 C 12.714844 151.75 11.996094 151.03125 11.996094 149.949219 C 11.996094 148.925781 12.636719 148.230469 13.621094 148.15625 L 13.796875 148.152344 L 44.929688 148.152344 Z M 24.226562 133.039062 L 55.363281 133.039062 C 56.445312 133.039062 57.160156 133.753906 57.160156 134.835938 C 57.160156 135.859375 56.523438 136.554688 55.539062 136.628906 L 55.363281 136.636719 L 24.226562 136.636719 C 23.152344 136.636719 22.429688 135.914062 22.429688 134.835938 C 22.429688 133.816406 23.066406 133.117188 24.050781 133.042969 L 24.226562 133.039062 L 55.363281 133.039062 Z M 122.101562 130.261719 C 125.242188 136.394531 126.984375 143.339844 126.984375 150.667969 C 126.984375 175.683594 106.648438 196.019531 81.628906 196.007812 C 69.574219 196.007812 58.234375 191.332031 49.597656 182.691406 C 48.878906 181.976562 48.878906 180.894531 49.597656 180.175781 C 50.3125 179.460938 51.394531 179.460938 52.113281 180.175781 C 60.027344 188.097656 70.464844 192.414062 81.621094 192.414062 C 104.660156 192.414062 123.371094 173.703125 123.371094 150.667969 C 123.371094 144.382812 121.960938 138.402344 119.433594 133.042969 Z M 116.585938 136.011719 C 118.527344 140.5625 119.605469 145.578125 119.605469 150.84375 C 119.605469 171.71875 102.691406 188.632812 81.8125 188.632812 C 74.082031 188.632812 66.699219 186.292969 60.402344 181.976562 C 59.503906 181.441406 59.320312 180.359375 59.859375 179.460938 C 60.402344 178.742188 61.484375 178.558594 62.558594 179.085938 C 68.132812 183.042969 74.796875 185.027344 81.8125 185.027344 C 100.707031 185.027344 116.003906 169.730469 116.003906 150.835938 C 116.003906 146.621094 115.242188 142.582031 113.851562 138.855469 Z M 116.113281 120.292969 C 117.71875 120.074219 119.285156 120.90625 119.988281 122.359375 C 120.703125 123.816406 120.394531 125.5625 119.234375 126.6875 C 106 139.953125 96.429688 150.714844 83.039062 164.132812 C 81.667969 165.523438 79.460938 165.625 77.96875 164.367188 L 61.742188 150.636719 C 60.976562 150 60.5 149.082031 60.417969 148.085938 C 60.328125 147.09375 60.640625 146.109375 61.285156 145.347656 C 61.929688 144.582031 62.851562 144.109375 63.839844 144.027344 C 64.835938 143.941406 65.820312 144.261719 66.578125 144.902344 L 80.152344 156.371094 C 92.078125 144.285156 101.433594 133.949219 113.929688 121.421875 C 114.507812 120.8125 115.28125 120.414062 116.113281 120.292969 Z M 81.8125 113.050781 C 91.347656 113.050781 100.054688 116.578125 106.703125 122.398438 L 104.214844 124.996094 C 98.21875 119.792969 90.386719 116.644531 81.8125 116.644531 C 74.613281 116.644531 67.589844 118.808594 61.835938 123.125 C 60.933594 123.664062 59.859375 123.484375 59.316406 122.765625 C 58.777344 122.050781 58.960938 120.789062 59.675781 120.25 C 66.160156 115.566406 73.898438 113.050781 81.8125 113.050781 Z M 89.910156 94.347656 C 90.996094 94.347656 91.710938 95.0625 91.710938 96.144531 C 91.710938 97.167969 91.070312 97.863281 90.089844 97.9375 L 89.910156 97.945312 L 83.429688 97.945312 L 83.429688 105.5 C 94.007812 105.851562 103.554688 109.832031 111.042969 116.253906 L 111.507812 116.65625 L 111.859375 117.011719 L 109.351562 119.636719 C 101.898438 113.085938 92.179688 109.09375 81.621094 109.09375 C 70.109375 109.09375 59.3125 113.777344 51.214844 122.230469 C 50.496094 122.949219 49.414062 122.949219 48.699219 122.230469 C 47.980469 121.515625 47.980469 120.433594 48.699219 119.714844 C 56.828125 111.0625 67.554688 106.222656 79.183594 105.535156 L 79.832031 105.5 L 79.832031 97.945312 L 73.53125 97.945312 C 72.449219 97.945312 71.734375 97.226562 71.734375 96.144531 C 71.734375 95.125 72.371094 94.425781 73.355469 94.351562 L 73.53125 94.347656 Z M 89.910156 94.347656 " fill-opacity="1" fill-rule="evenodd"/></g><g clip-path="url(#51cfe2a177)"><g clip-path="url(#8184533b14)"><g clip-path="url(#52625df1e0)"><path fill="#ffc374" d="M 165.117188 122.9375 L 137.53125 119.820312 L 138.050781 115.222656 C 138.480469 111.414062 135.742188 107.976562 131.933594 107.546875 L 113.542969 105.46875 C 109.734375 105.039062 106.296875 107.773438 105.867188 111.585938 L 105.34375 116.183594 L 77.761719 113.066406 C 70.144531 112.207031 63.269531 117.683594 62.410156 125.300781 L 61.890625 129.898438 L 176.835938 142.886719 L 177.355469 138.289062 C 178.214844 130.671875 172.738281 123.796875 165.121094 122.9375 Z M 165.117188 122.9375 " fill-opacity="1" fill-rule="nonzero"/></g></g></g><g clip-path="url(#728f02f9df)"><g clip-path="url(#6436e24b01)"><g clip-path="url(#0da6ec71a1)"><path fill="#ffc374" d="M 90.097656 209.917969 C 90.039062 210.445312 89.953125 210.96875 89.84375 211.488281 C 89.734375 212.003906 89.597656 212.519531 89.433594 213.023438 C 89.273438 213.527344 89.089844 214.023438 88.878906 214.511719 C 88.667969 215 88.433594 215.472656 88.179688 215.9375 C 87.921875 216.402344 87.644531 216.851562 87.34375 217.289062 C 87.039062 217.726562 86.71875 218.148438 86.375 218.554688 C 86.035156 218.957031 85.671875 219.34375 85.292969 219.714844 C 84.914062 220.085938 84.515625 220.433594 84.101562 220.765625 C 83.683594 221.097656 83.253906 221.40625 82.808594 221.695312 C 82.363281 221.980469 81.90625 222.246094 81.433594 222.492188 C 80.964844 222.734375 80.480469 222.953125 79.988281 223.148438 C 79.496094 223.347656 78.996094 223.515625 78.484375 223.664062 C 77.976562 223.808594 77.460938 223.933594 76.9375 224.027344 C 76.417969 224.125 75.890625 224.195312 75.363281 224.238281 C 74.832031 224.28125 74.304688 224.300781 73.773438 224.292969 C 73.242188 224.285156 72.714844 224.253906 72.1875 224.191406 C 71.660156 224.132812 71.136719 224.046875 70.621094 223.9375 C 70.101562 223.824219 69.589844 223.691406 69.082031 223.527344 C 68.578125 223.367188 68.082031 223.183594 67.59375 222.972656 C 67.109375 222.761719 66.632812 222.527344 66.167969 222.273438 C 65.703125 222.015625 65.253906 221.734375 64.816406 221.433594 C 64.378906 221.132812 63.957031 220.8125 63.554688 220.46875 C 63.148438 220.128906 62.761719 219.765625 62.390625 219.386719 C 62.023438 219.003906 61.671875 218.609375 61.339844 218.195312 C 61.011719 217.777344 60.703125 217.347656 60.414062 216.902344 C 60.125 216.457031 59.859375 216 59.617188 215.527344 C 59.371094 215.058594 59.152344 214.574219 58.957031 214.082031 C 58.761719 213.589844 58.589844 213.089844 58.441406 212.578125 C 58.296875 212.070312 58.175781 211.554688 58.078125 211.03125 C 57.984375 210.507812 57.914062 209.984375 57.867188 209.457031 C 57.824219 208.925781 57.804688 208.398438 57.8125 207.867188 C 57.820312 207.335938 57.855469 206.808594 57.914062 206.28125 C 57.972656 205.753906 58.058594 205.230469 58.167969 204.710938 C 58.28125 204.195312 58.417969 203.683594 58.578125 203.175781 C 58.738281 202.671875 58.925781 202.175781 59.132812 201.6875 C 59.34375 201.199219 59.578125 200.726562 59.835938 200.261719 C 60.089844 199.796875 60.371094 199.347656 60.671875 198.910156 C 60.972656 198.472656 61.292969 198.050781 61.636719 197.648438 C 61.976562 197.242188 62.339844 196.855469 62.71875 196.484375 C 63.101562 196.117188 63.5 195.765625 63.914062 195.433594 C 64.328125 195.105469 64.757812 194.792969 65.203125 194.507812 C 65.648438 194.21875 66.105469 193.953125 66.578125 193.707031 C 67.050781 193.464844 67.53125 193.246094 68.023438 193.050781 C 68.515625 192.855469 69.019531 192.683594 69.527344 192.535156 C 70.039062 192.390625 70.554688 192.269531 71.074219 192.171875 C 71.597656 192.078125 72.121094 192.007812 72.652344 191.960938 C 73.179688 191.917969 73.707031 191.898438 74.238281 191.90625 C 74.769531 191.914062 75.296875 191.949219 75.824219 192.007812 C 76.351562 192.066406 76.875 192.152344 77.394531 192.261719 C 77.914062 192.375 78.425781 192.511719 78.929688 192.671875 C 79.433594 192.832031 79.929688 193.019531 80.417969 193.226562 C 80.90625 193.4375 81.382812 193.671875 81.84375 193.929688 C 82.308594 194.183594 82.757812 194.464844 83.195312 194.765625 C 83.632812 195.066406 84.054688 195.386719 84.460938 195.730469 C 84.863281 196.070312 85.25 196.433594 85.621094 196.8125 C 85.992188 197.195312 86.339844 197.589844 86.671875 198.007812 C 87.003906 198.421875 87.3125 198.851562 87.601562 199.296875 C 87.886719 199.742188 88.152344 200.199219 88.398438 200.671875 C 88.640625 201.144531 88.859375 201.625 89.054688 202.117188 C 89.253906 202.609375 89.421875 203.113281 89.570312 203.621094 C 89.71875 204.132812 89.839844 204.648438 89.933594 205.167969 C 90.03125 205.691406 90.101562 206.214844 90.144531 206.742188 C 90.1875 207.273438 90.207031 207.800781 90.199219 208.332031 C 90.191406 208.863281 90.160156 209.390625 90.097656 209.917969 Z M 90.097656 209.917969 " fill-opacity="1" fill-rule="nonzero"/></g></g></g><g clip-path="url(#515f0b03c8)"><g clip-path="url(#eeec19dbea)"><g clip-path="url(#568691a163)"><path fill="#ffc374" d="M 69.085938 140.023438 L 71.339844 182.800781 C 73.140625 182.613281 74.988281 182.597656 76.863281 182.808594 C 90.828125 184.386719 100.871094 196.988281 99.292969 210.953125 C 98.601562 217.070312 95.796875 222.429688 91.691406 226.394531 L 136.609375 231.46875 C 141.113281 231.980469 145.320312 229.160156 146.5625 224.804688 L 167.554688 151.152344 Z M 69.085938 140.023438 " fill-opacity="1" fill-rule="nonzero"/></g></g></g><g fill="#ffffff" fill-opacity="1"><g transform="translate(185.2211, 174.401705)"><g><path d="M 19.453125 -9.734375 L 11.828125 -9.734375 C 12.003906 -10.234375 12.171875 -10.726562 12.328125 -11.21875 C 12.492188 -11.71875 12.648438 -12.207031 12.796875 -12.6875 C 12.972656 -13.1875 13.132812 -13.664062 13.28125 -14.125 C 13.4375 -14.582031 13.597656 -15.050781 13.765625 -15.53125 C 13.921875 -15.976562 14.070312 -16.429688 14.21875 -16.890625 C 14.363281 -17.359375 14.515625 -17.828125 14.671875 -18.296875 C 14.816406 -18.773438 14.96875 -19.25 15.125 -19.71875 C 15.289062 -20.195312 15.453125 -20.671875 15.609375 -21.140625 Z M 2.734375 0 L 8.984375 0 L 10.296875 -4.234375 L 20.921875 -4.234375 L 21.890625 0 L 28.515625 0 L 17.734375 -27.28125 L 13.515625 -27.28125 Z M 2.734375 0 "/></g></g></g><g fill="#ffffff" fill-opacity="1"><g transform="translate(216.449651, 174.401705)"><g><path d="M 25 -20.203125 L 25 -25.859375 C 23.726562 -26.484375 22.570312 -26.9375 21.53125 -27.21875 C 20.5 -27.507812 19.507812 -27.6875 18.5625 -27.75 C 17.613281 -27.8125 16.601562 -27.816406 15.53125 -27.765625 C 11.382812 -27.585938 8.210938 -26.265625 6.015625 -23.796875 C 3.828125 -21.328125 2.734375 -17.9375 2.734375 -13.625 C 2.734375 -10.726562 3.269531 -8.21875 4.34375 -6.09375 C 5.414062 -3.976562 6.953125 -2.34375 8.953125 -1.1875 C 10.960938 -0.0390625 13.34375 0.53125 16.09375 0.53125 C 17.71875 0.53125 19.265625 0.285156 20.734375 -0.203125 C 22.203125 -0.691406 23.625 -1.394531 25 -2.3125 L 25 -10.359375 C 21.976562 -7.597656 19.070312 -6.21875 16.28125 -6.21875 C 13.457031 -6.21875 11.351562 -6.753906 9.96875 -7.828125 C 8.582031 -8.898438 7.867188 -10.832031 7.828125 -13.625 C 7.828125 -16.84375 8.453125 -19.285156 9.703125 -20.953125 C 10.960938 -22.628906 12.96875 -23.46875 15.71875 -23.46875 C 16.664062 -23.46875 17.582031 -23.390625 18.46875 -23.234375 C 19.351562 -23.085938 20.316406 -22.78125 21.359375 -22.3125 C 22.410156 -21.851562 23.625 -21.148438 25 -20.203125 Z M 25 -20.203125 "/></g></g></g><g fill="#ffffff" fill-opacity="1"><g transform="translate(244.162639, 174.401705)"><g><path d="M 25 -20.203125 L 25 -25.859375 C 23.726562 -26.484375 22.570312 -26.9375 21.53125 -27.21875 C 20.5 -27.507812 19.507812 -27.6875 18.5625 -27.75 C 17.613281 -27.8125 16.601562 -27.816406 15.53125 -27.765625 C 11.382812 -27.585938 8.210938 -26.265625 6.015625 -23.796875 C 3.828125 -21.328125 2.734375 -17.9375 2.734375 -13.625 C 2.734375 -10.726562 3.269531 -8.21875 4.34375 -6.09375 C 5.414062 -3.976562 6.953125 -2.34375 8.953125 -1.1875 C 10.960938 -0.0390625 13.34375 0.53125 16.09375 0.53125 C 17.71875 0.53125 19.265625 0.285156 20.734375 -0.203125 C 22.203125 -0.691406 23.625 -1.394531 25 -2.3125 L 25 -10.359375 C 21.976562 -7.597656 19.070312 -6.21875 16.28125 -6.21875 C 13.457031 -6.21875 11.351562 -6.753906 9.96875 -7.828125 C 8.582031 -8.898438 7.867188 -10.832031 7.828125 -13.625 C 7.828125 -16.84375 8.453125 -19.285156 9.703125 -20.953125 C 10.960938 -22.628906 12.96875 -23.46875 15.71875 -23.46875 C 16.664062 -23.46875 17.582031 -23.390625 18.46875 -23.234375 C 19.351562 -23.085938 20.316406 -22.78125 21.359375 -22.3125 C 22.410156 -21.851562 23.625 -21.148438 25 -20.203125 Z M 25 -20.203125 "/></g></g></g><g fill="#ffffff" fill-opacity="1"><g transform="translate(271.875626, 174.401705)"><g><path d="M 2.734375 0 L 20.8125 0 L 20.8125 -6.765625 L 7.640625 -6.765625 L 7.640625 -12.34375 L 19.953125 -12.34375 L 19.953125 -16.65625 L 7.640625 -16.65625 L 7.640625 -22.9375 L 20.5 -22.9375 L 20.5 -27.28125 L 2.734375 -27.28125 Z M 2.734375 0 "/></g></g></g><g fill="#ffffff" fill-opacity="1"><g transform="translate(295.399886, 174.401705)"><g><path d="M 20.8125 -21.21875 L 20.8125 -26.234375 C 17.738281 -27.253906 14.96875 -27.765625 12.5 -27.765625 C 9.53125 -27.765625 7.160156 -27.039062 5.390625 -25.59375 C 3.617188 -24.144531 2.734375 -22.160156 2.734375 -19.640625 C 2.734375 -17.492188 3.375 -15.796875 4.65625 -14.546875 C 5.945312 -13.304688 7.960938 -12.425781 10.703125 -11.90625 L 12.828125 -11.484375 C 13.609375 -11.316406 14.304688 -11.109375 14.921875 -10.859375 C 15.546875 -10.609375 16.023438 -10.34375 16.359375 -10.0625 C 16.972656 -9.4375 17.28125 -8.898438 17.28125 -8.453125 C 17.28125 -7.910156 16.847656 -7.328125 15.984375 -6.703125 C 14.953125 -5.972656 13.53125 -5.609375 11.71875 -5.609375 C 10.46875 -5.609375 9.101562 -5.859375 7.625 -6.359375 C 6.15625 -6.859375 4.5625 -7.59375 2.84375 -8.5625 L 2.84375 -1.34375 C 6.207031 -0.09375 9.164062 0.53125 11.71875 0.53125 C 15.207031 0.53125 17.847656 -0.179688 19.640625 -1.609375 C 21.441406 -3.035156 22.34375 -5.109375 22.34375 -7.828125 C 22.34375 -10.140625 21.675781 -11.972656 20.34375 -13.328125 C 19.007812 -14.691406 16.929688 -15.648438 14.109375 -16.203125 L 14.140625 -16.203125 L 12.015625 -16.609375 C 10.191406 -16.960938 8.992188 -17.390625 8.421875 -17.890625 C 7.898438 -18.316406 7.640625 -19.003906 7.640625 -19.953125 C 7.640625 -21.097656 8.097656 -21.972656 9.015625 -22.578125 C 9.941406 -23.191406 11.238281 -23.5 12.90625 -23.5 C 13.957031 -23.5 15.125 -23.3125 16.40625 -22.9375 C 17.695312 -22.5625 19.164062 -21.988281 20.8125 -21.21875 Z M 20.8125 -21.21875 "/></g></g></g><g fill="#ffffff" fill-opacity="1"><g transform="translate(320.457511, 174.401705)"><g><path d="M 20.8125 -21.21875 L 20.8125 -26.234375 C 17.738281 -27.253906 14.96875 -27.765625 12.5 -27.765625 C 9.53125 -27.765625 7.160156 -27.039062 5.390625 -25.59375 C 3.617188 -24.144531 2.734375 -22.160156 2.734375 -19.640625 C 2.734375 -17.492188 3.375 -15.796875 4.65625 -14.546875 C 5.945312 -13.304688 7.960938 -12.425781 10.703125 -11.90625 L 12.828125 -11.484375 C 13.609375 -11.316406 14.304688 -11.109375 14.921875 -10.859375 C 15.546875 -10.609375 16.023438 -10.34375 16.359375 -10.0625 C 16.972656 -9.4375 17.28125 -8.898438 17.28125 -8.453125 C 17.28125 -7.910156 16.847656 -7.328125 15.984375 -6.703125 C 14.953125 -5.972656 13.53125 -5.609375 11.71875 -5.609375 C 10.46875 -5.609375 9.101562 -5.859375 7.625 -6.359375 C 6.15625 -6.859375 4.5625 -7.59375 2.84375 -8.5625 L 2.84375 -1.34375 C 6.207031 -0.09375 9.164062 0.53125 11.71875 0.53125 C 15.207031 0.53125 17.847656 -0.179688 19.640625 -1.609375 C 21.441406 -3.035156 22.34375 -5.109375 22.34375 -7.828125 C 22.34375 -10.140625 21.675781 -11.972656 20.34375 -13.328125 C 19.007812 -14.691406 16.929688 -15.648438 14.109375 -16.203125 L 14.140625 -16.203125 L 12.015625 -16.609375 C 10.191406 -16.960938 8.992188 -17.390625 8.421875 -17.890625 C 7.898438 -18.316406 7.640625 -19.003906 7.640625 -19.953125 C 7.640625 -21.097656 8.097656 -21.972656 9.015625 -22.578125 C 9.941406 -23.191406 11.238281 -23.5 12.90625 -23.5 C 13.957031 -23.5 15.125 -23.3125 16.40625 -22.9375 C 17.695312 -22.5625 19.164062 -21.988281 20.8125 -21.21875 Z M 20.8125 -21.21875 "/></g></g></g><g fill="#ffffff" fill-opacity="1"><g transform="translate(345.525297, 174.401705)"><g/></g></g><g fill="#ffffff" fill-opacity="1"><g transform="translate(180.226308, 225.495979)"><g><path d="M 25 -20.203125 L 25 -25.859375 C 23.726562 -26.484375 22.570312 -26.9375 21.53125 -27.21875 C 20.5 -27.507812 19.507812 -27.6875 18.5625 -27.75 C 17.613281 -27.8125 16.601562 -27.816406 15.53125 -27.765625 C 11.382812 -27.585938 8.210938 -26.265625 6.015625 -23.796875 C 3.828125 -21.328125 2.734375 -17.9375 2.734375 -13.625 C 2.734375 -10.726562 3.269531 -8.21875 4.34375 -6.09375 C 5.414062 -3.976562 6.953125 -2.34375 8.953125 -1.1875 C 10.960938 -0.0390625 13.34375 0.53125 16.09375 0.53125 C 17.71875 0.53125 19.265625 0.285156 20.734375 -0.203125 C 22.203125 -0.691406 23.625 -1.394531 25 -2.3125 L 25 -10.359375 C 21.976562 -7.597656 19.070312 -6.21875 16.28125 -6.21875 C 13.457031 -6.21875 11.351562 -6.753906 9.96875 -7.828125 C 8.582031 -8.898438 7.867188 -10.832031 7.828125 -13.625 C 7.828125 -16.84375 8.453125 -19.285156 9.703125 -20.953125 C 10.960938 -22.628906 12.96875 -23.46875 15.71875 -23.46875 C 16.664062 -23.46875 17.582031 -23.390625 18.46875 -23.234375 C 19.351562 -23.085938 20.316406 -22.78125 21.359375 -22.3125 C 22.410156 -21.851562 23.625 -21.148438 25 -20.203125 Z M 25 -20.203125 "/></g></g></g><g fill="#ffffff" fill-opacity="1"><g transform="translate(207.939295, 225.495979)"><g><path d="M 15.453125 -23.5 C 17.742188 -23.5 19.578125 -22.628906 20.953125 -20.890625 C 22.328125 -19.160156 23.015625 -16.738281 23.015625 -13.625 C 23.015625 -12.03125 22.71875 -10.785156 22.125 -9.890625 C 21.539062 -9.003906 20.6875 -8.394531 19.5625 -8.0625 C 18.445312 -7.726562 17.078125 -7.5625 15.453125 -7.5625 C 13.035156 -7.5625 11.128906 -7.972656 9.734375 -8.796875 C 8.460938 -9.640625 7.828125 -11.25 7.828125 -13.625 C 7.828125 -16.6875 8.523438 -19.128906 9.921875 -20.953125 C 10.585938 -21.753906 11.390625 -22.378906 12.328125 -22.828125 C 13.265625 -23.273438 14.304688 -23.5 15.453125 -23.5 Z M 15.453125 -27.765625 C 11.585938 -27.765625 8.492188 -26.46875 6.171875 -23.875 C 3.878906 -21.28125 2.734375 -17.863281 2.734375 -13.625 C 2.734375 -9.382812 3.878906 -5.96875 6.171875 -3.375 C 8.492188 -0.769531 11.585938 0.53125 15.453125 0.53125 C 19.273438 0.53125 22.34375 -0.769531 24.65625 -3.375 C 26.957031 -5.96875 28.109375 -9.382812 28.109375 -13.625 C 28.109375 -17.863281 26.957031 -21.28125 24.65625 -23.875 C 22.34375 -26.46875 19.273438 -27.765625 15.453125 -27.765625 Z M 15.453125 -27.765625 "/></g></g></g><g fill="#ffffff" fill-opacity="1"><g transform="translate(238.756437, 225.495979)"><g><path d="M 2.734375 0 L 20.0625 0 L 20.46875 -6.765625 L 7.828125 -6.765625 L 7.96875 -27.28125 L 3.109375 -27.28125 Z M 2.734375 0 "/></g></g></g><g fill="#ffffff" fill-opacity="1"><g transform="translate(261.944093, 225.495979)"><g><path d="M 2.734375 0 L 20.0625 0 L 20.46875 -6.765625 L 7.828125 -6.765625 L 7.96875 -27.28125 L 3.109375 -27.28125 Z M 2.734375 0 "/></g></g></g><g fill="#ffffff" fill-opacity="1"><g transform="translate(285.131749, 225.495979)"><g><path d="M 2.734375 0 L 20.8125 0 L 20.8125 -6.765625 L 7.640625 -6.765625 L 7.640625 -12.34375 L 19.953125 -12.34375 L 19.953125 -16.65625 L 7.640625 -16.65625 L 7.640625 -22.9375 L 20.5 -22.9375 L 20.5 -27.28125 L 2.734375 -27.28125 Z M 2.734375 0 "/></g></g></g><g fill="#ffffff" fill-opacity="1"><g transform="translate(308.656008, 225.495979)"><g><path d="M 25 -20.203125 L 25 -25.859375 C 23.726562 -26.484375 22.570312 -26.9375 21.53125 -27.21875 C 20.5 -27.507812 19.507812 -27.6875 18.5625 -27.75 C 17.613281 -27.8125 16.601562 -27.816406 15.53125 -27.765625 C 11.382812 -27.585938 8.210938 -26.265625 6.015625 -23.796875 C 3.828125 -21.328125 2.734375 -17.9375 2.734375 -13.625 C 2.734375 -10.726562 3.269531 -8.21875 4.34375 -6.09375 C 5.414062 -3.976562 6.953125 -2.34375 8.953125 -1.1875 C 10.960938 -0.0390625 13.34375 0.53125 16.09375 0.53125 C 17.71875 0.53125 19.265625 0.285156 20.734375 -0.203125 C 22.203125 -0.691406 23.625 -1.394531 25 -2.3125 L 25 -10.359375 C 21.976562 -7.597656 19.070312 -6.21875 16.28125 -6.21875 C 13.457031 -6.21875 11.351562 -6.753906 9.96875 -7.828125 C 8.582031 -8.898438 7.867188 -10.832031 7.828125 -13.625 C 7.828125 -16.84375 8.453125 -19.285156 9.703125 -20.953125 C 10.960938 -22.628906 12.96875 -23.46875 15.71875 -23.46875 C 16.664062 -23.46875 17.582031 -23.390625 18.46875 -23.234375 C 19.351562 -23.085938 20.316406 -22.78125 21.359375 -22.3125 C 22.410156 -21.851562 23.625 -21.148438 25 -20.203125 Z M 25 -20.203125 "/></g></g></g><g fill="#ffffff" fill-opacity="1"><g transform="translate(336.368996, 225.495979)"><g><path d="M 2.734375 -22.9375 L 11.90625 -23.28125 L 11.234375 0 L 17.546875 0 L 16.875 -23.28125 L 26.046875 -22.90625 L 26.046875 -27.28125 L 2.734375 -27.28125 Z M 2.734375 -22.9375 "/></g></g></g></svg>