<svg xmlns="http://www.w3.org/2000/svg" xmlns:xlink="http://www.w3.org/1999/xlink" width="500" zoomAndPan="magnify" viewBox="0 0 375 149.999998" height="200" preserveAspectRatio="xMidYMid meet" version="1.0"><defs><g/><clipPath id="ffcbf5b2a6"><path d="M 47 62 L 116 62 L 116 134 L 47 134 Z M 47 62 " clip-rule="nonzero"/></clipPath><clipPath id="9d6a3daa52"><path d="M 128.554688 94.257812 L 91.136719 147.714844 L 32.765625 106.855469 L 70.183594 53.398438 Z M 128.554688 94.257812 " clip-rule="nonzero"/></clipPath><clipPath id="bc3f89c154"><path d="M 128.554688 94.257812 L 91.136719 147.714844 L 32.765625 106.855469 L 70.183594 53.398438 Z M 128.554688 94.257812 " clip-rule="nonzero"/></clipPath><clipPath id="c35126ac67"><path d="M 27.105469 24.363281 L 69.855469 24.363281 L 69.855469 66.363281 L 27.105469 66.363281 Z M 27.105469 24.363281 " clip-rule="nonzero"/></clipPath><clipPath id="5098341ae1"><path d="M 72 4 L 177 4 L 177 39 L 72 39 Z M 72 4 " clip-rule="nonzero"/></clipPath><clipPath id="4b124dfdab"><path d="M 75.46875 0 L 179.058594 11.707031 L 166.59375 122.003906 L 63.003906 110.296875 Z M 75.46875 0 " clip-rule="nonzero"/></clipPath><clipPath id="1cb56dffc4"><path d="M 75.46875 0 L 179.058594 11.707031 L 166.59375 122.003906 L 63.003906 110.296875 Z M 75.46875 0 " clip-rule="nonzero"/></clipPath><clipPath id="aac0c3dcd7"><path d="M 68 83 L 99 83 L 99 113 L 68 113 Z M 68 83 " clip-rule="nonzero"/></clipPath><clipPath id="26d830d083"><path d="M 75.46875 0 L 179.058594 11.707031 L 166.59375 122.003906 L 63.003906 110.296875 Z M 75.46875 0 " clip-rule="nonzero"/></clipPath><clipPath id="6daabc03a0"><path d="M 75.46875 0 L 179.058594 11.707031 L 166.59375 122.003906 L 63.003906 110.296875 Z M 75.46875 0 " clip-rule="nonzero"/></clipPath><clipPath id="6919e3c03b"><path d="M 78 36 L 168 36 L 168 119 L 78 119 Z M 78 36 " clip-rule="nonzero"/></clipPath><clipPath id="0d83f3ea85"><path d="M 75.46875 0 L 179.058594 11.707031 L 166.59375 122.003906 L 63.003906 110.296875 Z M 75.46875 0 " clip-rule="nonzero"/></clipPath><clipPath id="90f53d0650"><path d="M 75.46875 0 L 179.058594 11.707031 L 166.59375 122.003906 L 63.003906 110.296875 Z M 75.46875 0 " clip-rule="nonzero"/></clipPath></defs><g clip-path="url(#ffcbf5b2a6)"><g clip-path="url(#9d6a3daa52)"><g clip-path="url(#bc3f89c154)"><path fill="#ffffff" d="M 115.46875 110.019531 C 113.25 116.085938 109.394531 121.417969 104.332031 125.429688 C 99.269531 129.441406 93.195312 131.976562 86.785156 132.75 C 80.371094 133.527344 73.871094 132.511719 67.996094 129.824219 C 62.125 127.132812 57.109375 122.871094 53.507812 117.511719 C 49.90625 112.148438 47.855469 105.894531 47.585938 99.441406 C 47.316406 92.988281 48.835938 86.585938 51.980469 80.941406 C 55.121094 75.300781 59.761719 70.632812 65.390625 67.464844 C 71.015625 64.292969 77.414062 62.742188 83.867188 62.980469 L 83.441406 74.550781 C 79.121094 74.394531 74.839844 75.433594 71.074219 77.554688 C 67.304688 79.675781 64.199219 82.796875 62.097656 86.574219 C 59.992188 90.351562 58.976562 94.640625 59.15625 98.957031 C 59.335938 103.277344 60.707031 107.464844 63.121094 111.054688 C 65.53125 114.640625 68.886719 117.492188 72.820312 119.292969 C 76.75 121.09375 81.101562 121.773438 85.394531 121.253906 C 89.6875 120.734375 93.75 119.039062 97.140625 116.355469 C 100.527344 113.667969 103.109375 110.097656 104.59375 106.039062 Z M 115.46875 110.019531 " fill-opacity="1" fill-rule="nonzero"/></g></g></g><g clip-path="url(#c35126ac67)"><path fill="#f9e897" d="M 66.527344 57.148438 C 67.503906 57.148438 68.152344 57.796875 68.152344 58.773438 C 68.152344 59.75 67.503906 60.398438 66.527344 60.398438 L 38.394531 60.398438 C 37.414062 60.398438 36.769531 59.75 36.769531 58.773438 C 36.769531 57.796875 37.414062 57.148438 38.394531 57.148438 Z M 28.96875 43.492188 L 57.101562 43.492188 C 58.082031 43.492188 58.726562 44.140625 58.726562 45.117188 C 58.726562 46.042969 58.152344 46.671875 57.261719 46.738281 L 57.101562 46.742188 L 28.96875 46.742188 C 27.992188 46.742188 27.34375 46.09375 27.34375 45.117188 C 27.34375 44.195312 27.921875 43.5625 28.808594 43.496094 L 28.96875 43.492188 L 57.101562 43.492188 Z M 38.394531 29.835938 L 66.527344 29.835938 C 67.503906 29.835938 68.152344 30.484375 68.152344 31.460938 C 68.152344 32.386719 67.574219 33.015625 66.6875 33.082031 L 66.527344 33.085938 L 38.394531 33.085938 C 37.421875 33.085938 36.769531 32.433594 36.769531 31.460938 C 36.769531 30.539062 37.34375 29.910156 38.234375 29.839844 L 38.394531 29.835938 L 66.527344 29.835938 Z M 126.835938 27.328125 C 129.671875 32.867188 131.246094 39.144531 131.246094 45.765625 C 131.246094 68.371094 112.871094 86.746094 90.265625 86.734375 C 79.371094 86.734375 69.125 82.511719 61.316406 74.703125 C 60.671875 74.054688 60.671875 73.078125 61.316406 72.429688 C 61.964844 71.78125 62.945312 71.78125 63.59375 72.429688 C 70.742188 79.589844 80.175781 83.488281 90.257812 83.488281 C 111.074219 83.488281 127.980469 66.582031 127.980469 45.765625 C 127.980469 40.085938 126.707031 34.683594 124.421875 29.839844 Z M 121.847656 32.519531 C 123.605469 36.636719 124.578125 41.164062 124.578125 45.921875 C 124.578125 64.789062 109.296875 80.070312 90.429688 80.070312 C 83.441406 80.070312 76.773438 77.957031 71.082031 74.054688 C 70.269531 73.574219 70.101562 72.59375 70.59375 71.78125 C 71.082031 71.132812 72.058594 70.96875 73.03125 71.445312 C 78.070312 75.023438 84.089844 76.8125 90.429688 76.8125 C 107.503906 76.8125 121.324219 62.992188 121.324219 45.917969 C 121.324219 42.109375 120.636719 38.460938 119.378906 35.09375 Z M 121.425781 18.316406 C 122.875 18.121094 124.289062 18.875 124.925781 20.1875 C 125.570312 21.503906 125.292969 23.082031 124.242188 24.097656 C 112.285156 36.085938 103.636719 45.808594 91.535156 57.933594 C 90.300781 59.1875 88.304688 59.28125 86.957031 58.144531 L 72.292969 45.738281 C 71.601562 45.160156 71.171875 44.332031 71.09375 43.433594 C 71.015625 42.535156 71.296875 41.644531 71.878906 40.957031 C 72.460938 40.265625 73.292969 39.839844 74.1875 39.765625 C 75.085938 39.691406 75.976562 39.976562 76.664062 40.558594 L 88.929688 50.917969 C 99.703125 39.996094 108.160156 30.65625 119.449219 19.339844 C 119.972656 18.789062 120.671875 18.429688 121.425781 18.316406 Z M 90.429688 11.773438 C 99.042969 11.773438 106.914062 14.960938 112.917969 20.222656 L 110.671875 22.570312 C 105.253906 17.867188 98.175781 15.019531 90.429688 15.019531 C 83.925781 15.019531 77.578125 16.976562 72.375 20.878906 C 71.5625 21.367188 70.589844 21.203125 70.101562 20.554688 C 69.613281 19.90625 69.777344 18.769531 70.425781 18.28125 C 76.285156 14.050781 83.277344 11.773438 90.429688 11.773438 Z M 97.746094 -5.128906 C 98.726562 -5.128906 99.375 -4.480469 99.375 -3.5 C 99.375 -2.578125 98.796875 -1.949219 97.90625 -1.882812 L 97.746094 -1.875 L 91.890625 -1.875 L 91.890625 4.953125 C 101.449219 5.269531 110.074219 8.867188 116.839844 14.667969 L 117.261719 15.035156 L 117.582031 15.351562 L 115.3125 17.722656 C 108.582031 11.804688 99.796875 8.199219 90.257812 8.199219 C 79.851562 8.199219 70.097656 12.429688 62.777344 20.070312 C 62.132812 20.71875 61.152344 20.71875 60.503906 20.070312 C 59.855469 19.421875 59.855469 18.445312 60.503906 17.796875 C 67.851562 9.976562 77.542969 5.601562 88.054688 4.984375 L 88.636719 4.953125 L 88.636719 -1.875 L 82.945312 -1.875 C 81.96875 -1.875 81.320312 -2.523438 81.320312 -3.5 C 81.320312 -4.425781 81.898438 -5.054688 82.789062 -5.121094 L 82.945312 -5.128906 Z M 97.746094 -5.128906 " fill-opacity="1" fill-rule="evenodd"/></g><g clip-path="url(#5098341ae1)"><g clip-path="url(#4b124dfdab)"><g clip-path="url(#1cb56dffc4)"><path fill="#ffc374" d="M 165.707031 20.707031 L 140.78125 17.890625 L 141.25 13.738281 C 141.636719 10.296875 139.164062 7.1875 135.722656 6.800781 L 119.105469 4.921875 C 115.664062 4.535156 112.558594 7.007812 112.167969 10.449219 L 111.699219 14.605469 L 86.773438 11.789062 C 79.890625 11.011719 73.679688 15.960938 72.902344 22.84375 L 72.433594 26.996094 L 176.292969 38.734375 L 176.761719 34.578125 C 177.539062 27.695312 172.589844 21.484375 165.707031 20.707031 Z M 165.707031 20.707031 " fill-opacity="1" fill-rule="nonzero"/></g></g></g><g clip-path="url(#aac0c3dcd7)"><g clip-path="url(#26d830d083)"><g clip-path="url(#6daabc03a0)"><path fill="#ffc374" d="M 97.921875 99.300781 C 97.8125 100.253906 97.613281 101.191406 97.324219 102.105469 C 97.03125 103.019531 96.652344 103.898438 96.1875 104.738281 C 95.722656 105.582031 95.179688 106.367188 94.558594 107.101562 C 93.9375 107.835938 93.253906 108.503906 92.5 109.101562 C 91.75 109.699219 90.949219 110.21875 90.09375 110.660156 C 89.238281 111.101562 88.351562 111.453125 87.429688 111.71875 C 86.503906 111.984375 85.5625 112.160156 84.605469 112.238281 C 83.648438 112.320312 82.691406 112.304688 81.738281 112.199219 C 80.785156 112.089844 79.847656 111.890625 78.933594 111.597656 C 78.015625 111.304688 77.140625 110.925781 76.296875 110.460938 C 75.457031 109.996094 74.671875 109.453125 73.9375 108.835938 C 73.203125 108.214844 72.535156 107.527344 71.9375 106.777344 C 71.339844 106.027344 70.820312 105.222656 70.378906 104.371094 C 69.9375 103.515625 69.585938 102.628906 69.320312 101.703125 C 69.054688 100.78125 68.878906 99.839844 68.800781 98.882812 C 68.71875 97.925781 68.734375 96.96875 68.839844 96.015625 C 68.949219 95.058594 69.148438 94.125 69.441406 93.210938 C 69.734375 92.292969 70.109375 91.414062 70.574219 90.574219 C 71.042969 89.734375 71.582031 88.945312 72.203125 88.210938 C 72.824219 87.480469 73.511719 86.8125 74.261719 86.214844 C 75.011719 85.613281 75.816406 85.09375 76.667969 84.652344 C 77.523438 84.214844 78.410156 83.859375 79.335938 83.59375 C 80.257812 83.328125 81.199219 83.15625 82.15625 83.074219 C 83.113281 82.996094 84.070312 83.007812 85.023438 83.117188 C 85.980469 83.222656 86.914062 83.425781 87.828125 83.714844 C 88.746094 84.007812 89.625 84.386719 90.464844 84.851562 C 91.304688 85.316406 92.09375 85.859375 92.824219 86.480469 C 93.558594 87.101562 94.226562 87.785156 94.824219 88.539062 C 95.425781 89.289062 95.945312 90.089844 96.382812 90.945312 C 96.824219 91.800781 97.179688 92.6875 97.445312 93.609375 C 97.710938 94.535156 97.882812 95.476562 97.964844 96.433594 C 98.042969 97.390625 98.03125 98.347656 97.921875 99.300781 Z M 97.921875 99.300781 " fill-opacity="1" fill-rule="nonzero"/></g></g></g><g clip-path="url(#6919e3c03b)"><g clip-path="url(#0d83f3ea85)"><g clip-path="url(#90f53d0650)"><path fill="#ffc374" d="M 78.9375 36.144531 L 80.972656 74.796875 C 82.597656 74.628906 84.269531 74.613281 85.960938 74.804688 C 98.582031 76.230469 107.65625 87.617188 106.230469 100.238281 C 105.605469 105.761719 103.070312 110.605469 99.363281 114.1875 L 139.949219 118.773438 C 144.015625 119.234375 147.816406 116.6875 148.941406 112.75 L 167.910156 46.199219 Z M 78.9375 36.144531 " fill-opacity="1" fill-rule="nonzero"/></g></g></g><g fill="#ffffff" fill-opacity="1"><g transform="translate(168.886179, 70.988803)"><g><path d="M 17.578125 -8.796875 L 10.6875 -8.796875 C 10.84375 -9.242188 10.992188 -9.691406 11.140625 -10.140625 C 11.285156 -10.585938 11.425781 -11.03125 11.5625 -11.46875 C 11.71875 -11.914062 11.863281 -12.347656 12 -12.765625 C 12.132812 -13.179688 12.28125 -13.601562 12.4375 -14.03125 C 12.570312 -14.4375 12.707031 -14.847656 12.84375 -15.265625 C 12.976562 -15.679688 13.113281 -16.101562 13.25 -16.53125 C 13.382812 -16.957031 13.523438 -17.382812 13.671875 -17.8125 C 13.816406 -18.25 13.957031 -18.679688 14.09375 -19.109375 Z M 2.46875 0 L 8.109375 0 L 9.296875 -3.828125 L 18.90625 -3.828125 L 19.78125 0 L 25.765625 0 L 16.03125 -24.65625 L 12.203125 -24.65625 Z M 2.46875 0 "/></g></g></g><g fill="#ffffff" fill-opacity="1"><g transform="translate(197.105037, 70.988803)"><g><path d="M 22.59375 -18.265625 L 22.59375 -23.359375 C 21.4375 -23.921875 20.390625 -24.332031 19.453125 -24.59375 C 18.523438 -24.851562 17.628906 -25.007812 16.765625 -25.0625 C 15.910156 -25.125 15 -25.132812 14.03125 -25.09375 C 10.289062 -24.9375 7.425781 -23.738281 5.4375 -21.5 C 3.457031 -19.269531 2.46875 -16.207031 2.46875 -12.3125 C 2.46875 -9.695312 2.953125 -7.429688 3.921875 -5.515625 C 4.890625 -3.597656 6.28125 -2.117188 8.09375 -1.078125 C 9.90625 -0.046875 12.054688 0.46875 14.546875 0.46875 C 16.003906 0.46875 17.398438 0.25 18.734375 -0.1875 C 20.066406 -0.625 21.351562 -1.257812 22.59375 -2.09375 L 22.59375 -9.359375 C 19.863281 -6.859375 17.234375 -5.609375 14.703125 -5.609375 C 12.160156 -5.609375 10.265625 -6.09375 9.015625 -7.0625 C 7.765625 -8.03125 7.113281 -9.78125 7.0625 -12.3125 C 7.0625 -15.21875 7.628906 -17.425781 8.765625 -18.9375 C 9.910156 -20.445312 11.722656 -21.203125 14.203125 -21.203125 C 15.054688 -21.203125 15.882812 -21.132812 16.6875 -21 C 17.488281 -20.863281 18.363281 -20.585938 19.3125 -20.171875 C 20.257812 -19.753906 21.351562 -19.117188 22.59375 -18.265625 Z M 22.59375 -18.265625 "/></g></g></g><g fill="#ffffff" fill-opacity="1"><g transform="translate(222.147148, 70.988803)"><g><path d="M 22.59375 -18.265625 L 22.59375 -23.359375 C 21.4375 -23.921875 20.390625 -24.332031 19.453125 -24.59375 C 18.523438 -24.851562 17.628906 -25.007812 16.765625 -25.0625 C 15.910156 -25.125 15 -25.132812 14.03125 -25.09375 C 10.289062 -24.9375 7.425781 -23.738281 5.4375 -21.5 C 3.457031 -19.269531 2.46875 -16.207031 2.46875 -12.3125 C 2.46875 -9.695312 2.953125 -7.429688 3.921875 -5.515625 C 4.890625 -3.597656 6.28125 -2.117188 8.09375 -1.078125 C 9.90625 -0.046875 12.054688 0.46875 14.546875 0.46875 C 16.003906 0.46875 17.398438 0.25 18.734375 -0.1875 C 20.066406 -0.625 21.351562 -1.257812 22.59375 -2.09375 L 22.59375 -9.359375 C 19.863281 -6.859375 17.234375 -5.609375 14.703125 -5.609375 C 12.160156 -5.609375 10.265625 -6.09375 9.015625 -7.0625 C 7.765625 -8.03125 7.113281 -9.78125 7.0625 -12.3125 C 7.0625 -15.21875 7.628906 -17.425781 8.765625 -18.9375 C 9.910156 -20.445312 11.722656 -21.203125 14.203125 -21.203125 C 15.054688 -21.203125 15.882812 -21.132812 16.6875 -21 C 17.488281 -20.863281 18.363281 -20.585938 19.3125 -20.171875 C 20.257812 -19.753906 21.351562 -19.117188 22.59375 -18.265625 Z M 22.59375 -18.265625 "/></g></g></g><g fill="#ffffff" fill-opacity="1"><g transform="translate(247.18926, 70.988803)"><g><path d="M 2.46875 0 L 18.796875 0 L 18.796875 -6.125 L 6.890625 -6.125 L 6.890625 -11.15625 L 18.015625 -11.15625 L 18.015625 -15.046875 L 6.890625 -15.046875 L 6.890625 -20.734375 L 18.53125 -20.734375 L 18.53125 -24.65625 L 2.46875 -24.65625 Z M 2.46875 0 "/></g></g></g><g fill="#ffffff" fill-opacity="1"><g transform="translate(268.446338, 70.988803)"><g><path d="M 18.796875 -19.171875 L 18.796875 -23.703125 C 16.023438 -24.628906 13.523438 -25.09375 11.296875 -25.09375 C 8.609375 -25.09375 6.460938 -24.4375 4.859375 -23.125 C 3.265625 -21.820312 2.46875 -20.03125 2.46875 -17.75 C 2.46875 -15.8125 3.046875 -14.28125 4.203125 -13.15625 C 5.367188 -12.03125 7.191406 -11.226562 9.671875 -10.75 L 11.59375 -10.375 C 12.289062 -10.21875 12.921875 -10.023438 13.484375 -9.796875 C 14.054688 -9.578125 14.488281 -9.34375 14.78125 -9.09375 C 15.34375 -8.53125 15.625 -8.046875 15.625 -7.640625 C 15.625 -7.140625 15.226562 -6.609375 14.4375 -6.046875 C 13.507812 -5.398438 12.222656 -5.078125 10.578125 -5.078125 C 9.453125 -5.078125 8.222656 -5.300781 6.890625 -5.75 C 5.566406 -6.195312 4.125 -6.863281 2.5625 -7.75 L 2.5625 -1.21875 C 5.613281 -0.09375 8.285156 0.46875 10.578125 0.46875 C 13.734375 0.46875 16.125 -0.171875 17.75 -1.453125 C 19.375 -2.734375 20.1875 -4.601562 20.1875 -7.0625 C 20.1875 -9.164062 19.582031 -10.828125 18.375 -12.046875 C 17.164062 -13.273438 15.289062 -14.140625 12.75 -14.640625 L 12.78125 -14.640625 L 10.859375 -15.015625 C 9.210938 -15.328125 8.128906 -15.707031 7.609375 -16.15625 C 7.128906 -16.539062 6.890625 -17.160156 6.890625 -18.015625 C 6.890625 -19.054688 7.304688 -19.851562 8.140625 -20.40625 C 8.984375 -20.957031 10.160156 -21.234375 11.671875 -21.234375 C 12.609375 -21.234375 13.65625 -21.0625 14.8125 -20.71875 C 15.976562 -20.382812 17.304688 -19.867188 18.796875 -19.171875 Z M 18.796875 -19.171875 "/></g></g></g><g fill="#ffffff" fill-opacity="1"><g transform="translate(291.089001, 70.988803)"><g><path d="M 18.796875 -19.171875 L 18.796875 -23.703125 C 16.023438 -24.628906 13.523438 -25.09375 11.296875 -25.09375 C 8.609375 -25.09375 6.460938 -24.4375 4.859375 -23.125 C 3.265625 -21.820312 2.46875 -20.03125 2.46875 -17.75 C 2.46875 -15.8125 3.046875 -14.28125 4.203125 -13.15625 C 5.367188 -12.03125 7.191406 -11.226562 9.671875 -10.75 L 11.59375 -10.375 C 12.289062 -10.21875 12.921875 -10.023438 13.484375 -9.796875 C 14.054688 -9.578125 14.488281 -9.34375 14.78125 -9.09375 C 15.34375 -8.53125 15.625 -8.046875 15.625 -7.640625 C 15.625 -7.140625 15.226562 -6.609375 14.4375 -6.046875 C 13.507812 -5.398438 12.222656 -5.078125 10.578125 -5.078125 C 9.453125 -5.078125 8.222656 -5.300781 6.890625 -5.75 C 5.566406 -6.195312 4.125 -6.863281 2.5625 -7.75 L 2.5625 -1.21875 C 5.613281 -0.09375 8.285156 0.46875 10.578125 0.46875 C 13.734375 0.46875 16.125 -0.171875 17.75 -1.453125 C 19.375 -2.734375 20.1875 -4.601562 20.1875 -7.0625 C 20.1875 -9.164062 19.582031 -10.828125 18.375 -12.046875 C 17.164062 -13.273438 15.289062 -14.140625 12.75 -14.640625 L 12.78125 -14.640625 L 10.859375 -15.015625 C 9.210938 -15.328125 8.128906 -15.707031 7.609375 -16.15625 C 7.128906 -16.539062 6.890625 -17.160156 6.890625 -18.015625 C 6.890625 -19.054688 7.304688 -19.851562 8.140625 -20.40625 C 8.984375 -20.957031 10.160156 -21.234375 11.671875 -21.234375 C 12.609375 -21.234375 13.65625 -21.0625 14.8125 -20.71875 C 15.976562 -20.382812 17.304688 -19.867188 18.796875 -19.171875 Z M 18.796875 -19.171875 "/></g></g></g><g fill="#ffffff" fill-opacity="1"><g transform="translate(313.740846, 70.988803)"><g/></g></g><g fill="#ffffff" fill-opacity="1"><g transform="translate(164.372766, 117.158798)"><g><path d="M 22.59375 -18.265625 L 22.59375 -23.359375 C 21.4375 -23.921875 20.390625 -24.332031 19.453125 -24.59375 C 18.523438 -24.851562 17.628906 -25.007812 16.765625 -25.0625 C 15.910156 -25.125 15 -25.132812 14.03125 -25.09375 C 10.289062 -24.9375 7.425781 -23.738281 5.4375 -21.5 C 3.457031 -19.269531 2.46875 -16.207031 2.46875 -12.3125 C 2.46875 -9.695312 2.953125 -7.429688 3.921875 -5.515625 C 4.890625 -3.597656 6.28125 -2.117188 8.09375 -1.078125 C 9.90625 -0.046875 12.054688 0.46875 14.546875 0.46875 C 16.003906 0.46875 17.398438 0.25 18.734375 -0.1875 C 20.066406 -0.625 21.351562 -1.257812 22.59375 -2.09375 L 22.59375 -9.359375 C 19.863281 -6.859375 17.234375 -5.609375 14.703125 -5.609375 C 12.160156 -5.609375 10.265625 -6.09375 9.015625 -7.0625 C 7.765625 -8.03125 7.113281 -9.78125 7.0625 -12.3125 C 7.0625 -15.21875 7.628906 -17.425781 8.765625 -18.9375 C 9.910156 -20.445312 11.722656 -21.203125 14.203125 -21.203125 C 15.054688 -21.203125 15.882812 -21.132812 16.6875 -21 C 17.488281 -20.863281 18.363281 -20.585938 19.3125 -20.171875 C 20.257812 -19.753906 21.351562 -19.117188 22.59375 -18.265625 Z M 22.59375 -18.265625 "/></g></g></g><g fill="#ffffff" fill-opacity="1"><g transform="translate(189.414878, 117.158798)"><g><path d="M 13.96875 -21.234375 C 16.039062 -21.234375 17.695312 -20.445312 18.9375 -18.875 C 20.175781 -17.3125 20.796875 -15.125 20.796875 -12.3125 C 20.796875 -10.863281 20.53125 -9.738281 20 -8.9375 C 19.46875 -8.144531 18.691406 -7.59375 17.671875 -7.28125 C 16.660156 -6.976562 15.425781 -6.828125 13.96875 -6.828125 C 11.78125 -6.828125 10.054688 -7.203125 8.796875 -7.953125 C 7.640625 -8.710938 7.0625 -10.164062 7.0625 -12.3125 C 7.0625 -15.082031 7.691406 -17.289062 8.953125 -18.9375 C 9.566406 -19.65625 10.296875 -20.21875 11.140625 -20.625 C 11.984375 -21.03125 12.925781 -21.234375 13.96875 -21.234375 Z M 13.96875 -25.09375 C 10.46875 -25.09375 7.671875 -23.921875 5.578125 -21.578125 C 3.503906 -19.234375 2.46875 -16.144531 2.46875 -12.3125 C 2.46875 -8.476562 3.503906 -5.390625 5.578125 -3.046875 C 7.671875 -0.703125 10.46875 0.46875 13.96875 0.46875 C 17.414062 0.46875 20.1875 -0.703125 22.28125 -3.046875 C 24.351562 -5.390625 25.390625 -8.476562 25.390625 -12.3125 C 25.390625 -16.144531 24.351562 -19.234375 22.28125 -21.578125 C 20.1875 -23.921875 17.414062 -25.09375 13.96875 -25.09375 Z M 13.96875 -25.09375 "/></g></g></g><g fill="#ffffff" fill-opacity="1"><g transform="translate(217.261977, 117.158798)"><g><path d="M 2.46875 0 L 18.125 0 L 18.5 -6.125 L 7.0625 -6.125 L 7.203125 -24.65625 L 2.8125 -24.65625 Z M 2.46875 0 "/></g></g></g><g fill="#ffffff" fill-opacity="1"><g transform="translate(238.214892, 117.158798)"><g><path d="M 2.46875 0 L 18.125 0 L 18.5 -6.125 L 7.0625 -6.125 L 7.203125 -24.65625 L 2.8125 -24.65625 Z M 2.46875 0 "/></g></g></g><g fill="#ffffff" fill-opacity="1"><g transform="translate(259.167806, 117.158798)"><g><path d="M 2.46875 0 L 18.796875 0 L 18.796875 -6.125 L 6.890625 -6.125 L 6.890625 -11.15625 L 18.015625 -11.15625 L 18.015625 -15.046875 L 6.890625 -15.046875 L 6.890625 -20.734375 L 18.53125 -20.734375 L 18.53125 -24.65625 L 2.46875 -24.65625 Z M 2.46875 0 "/></g></g></g><g fill="#ffffff" fill-opacity="1"><g transform="translate(280.424884, 117.158798)"><g><path d="M 22.59375 -18.265625 L 22.59375 -23.359375 C 21.4375 -23.921875 20.390625 -24.332031 19.453125 -24.59375 C 18.523438 -24.851562 17.628906 -25.007812 16.765625 -25.0625 C 15.910156 -25.125 15 -25.132812 14.03125 -25.09375 C 10.289062 -24.9375 7.425781 -23.738281 5.4375 -21.5 C 3.457031 -19.269531 2.46875 -16.207031 2.46875 -12.3125 C 2.46875 -9.695312 2.953125 -7.429688 3.921875 -5.515625 C 4.890625 -3.597656 6.28125 -2.117188 8.09375 -1.078125 C 9.90625 -0.046875 12.054688 0.46875 14.546875 0.46875 C 16.003906 0.46875 17.398438 0.25 18.734375 -0.1875 C 20.066406 -0.625 21.351562 -1.257812 22.59375 -2.09375 L 22.59375 -9.359375 C 19.863281 -6.859375 17.234375 -5.609375 14.703125 -5.609375 C 12.160156 -5.609375 10.265625 -6.09375 9.015625 -7.0625 C 7.765625 -8.03125 7.113281 -9.78125 7.0625 -12.3125 C 7.0625 -15.21875 7.628906 -17.425781 8.765625 -18.9375 C 9.910156 -20.445312 11.722656 -21.203125 14.203125 -21.203125 C 15.054688 -21.203125 15.882812 -21.132812 16.6875 -21 C 17.488281 -20.863281 18.363281 -20.585938 19.3125 -20.171875 C 20.257812 -19.753906 21.351562 -19.117188 22.59375 -18.265625 Z M 22.59375 -18.265625 "/></g></g></g><g fill="#ffffff" fill-opacity="1"><g transform="translate(305.466996, 117.158798)"><g><path d="M 2.46875 -20.734375 L 10.75 -21.03125 L 10.140625 0 L 15.859375 0 L 15.25 -21.03125 L 23.53125 -20.6875 L 23.53125 -24.65625 L 2.46875 -24.65625 Z M 2.46875 -20.734375 "/></g></g></g></svg>