<svg xmlns="http://www.w3.org/2000/svg" xmlns:xlink="http://www.w3.org/1999/xlink" width="500" zoomAndPan="magnify" viewBox="0 0 375 374.999991" height="500" preserveAspectRatio="xMidYMid meet" version="1.0"><defs><clipPath id="65ace61af3"><path d="M 191 202 L 257 202 L 257 261.203125 L 191 261.203125 Z M 191 202 " clip-rule="nonzero"/></clipPath></defs><path fill="#f9e794" d="M 214.40625 183.644531 L 245.023438 164.957031 L 258.742188 191.972656 C 262.054688 206.734375 243.898438 212.152344 229.316406 211.269531 Z M 214.40625 183.644531 " fill-opacity="1" fill-rule="evenodd"/><g clip-path="url(#65ace61af3)"><path fill="#f9e794" d="M 207.453125 202.953125 L 191.351562 232.003906 L 207.453125 261.457031 L 207.851562 249.675781 L 222.5625 249.675781 C 227.933594 250.148438 234.890625 246.558594 237.476562 241.347656 L 256.363281 206 C 250.132812 212.296875 242.121094 213.921875 232.902344 213.921875 L 208.050781 213.921875 Z M 207.453125 202.953125 " fill-opacity="1" fill-rule="evenodd"/></g><path fill="#f9e794" d="M 171.472656 167.140625 L 140.621094 148.859375 L 157.082031 123.492188 C 168.101562 113.367188 181.554688 126.960938 187.875 140.410156 Z M 171.472656 167.140625 " fill-opacity="1" fill-rule="evenodd"/><path fill="#f9e794" d="M 191.371094 163.984375 L 224.046875 164.273438 L 241.433594 135.589844 L 231.160156 140.953125 L 224.019531 127.8125 C 221.820312 122.785156 215.371094 118.3125 209.652344 118.535156 L 170.242188 118.820312 C 178.652344 121.328125 183.933594 127.695312 188.40625 135.929688 L 200.46875 158.128906 L 191.375 163.988281 Z M 191.371094 163.984375 " fill-opacity="1" fill-rule="evenodd"/><path fill="#f9e794" d="M 117.015625 165.628906 L 126.574219 173.097656 L 117.578125 190.332031 C 113.078125 198.28125 120.804688 206.023438 125.730469 208.71875 C 130.578125 211.371094 138.101562 211.6875 145.132812 211.589844 L 157.785156 190.90625 L 167.34375 196.078125 L 150.753906 165.339844 Z M 117.015625 165.628906 " fill-opacity="1" fill-rule="evenodd"/><path fill="#f9e794" d="M 118.414062 205.554688 L 138.941406 243.476562 C 143.066406 248.742188 150.84375 249.988281 158.90625 249.792969 L 180.554688 249.792969 L 180.554688 213.886719 L 139.503906 213.597656 C 133.132812 213.980469 124.789062 212.640625 118.417969 205.554688 Z M 118.414062 205.554688 " fill-opacity="1" fill-rule="evenodd"/></svg>