<svg xmlns="http://www.w3.org/2000/svg" xmlns:xlink="http://www.w3.org/1999/xlink" width="500" zoomAndPan="magnify" viewBox="0 0 375 374.999991" height="500" preserveAspectRatio="xMidYMid meet" version="1.0"><defs><clipPath id="f7115daf28"><path d="M 4.824219 66.246094 L 370.074219 66.246094 L 370.074219 259.746094 L 4.824219 259.746094 Z M 4.824219 66.246094 " clip-rule="nonzero"/></clipPath></defs><g clip-path="url(#f7115daf28)"><path fill="#fdfae9" d="M 369.832031 118.261719 C 369.667969 117.542969 369.601562 116.800781 369.449219 116.078125 C 369.195312 114.867188 368.910156 113.664062 368.632812 112.460938 C 368.546875 112.085938 368.453125 111.710938 368.351562 111.339844 C 368.199219 110.78125 368.148438 110.148438 367.851562 109.675781 C 367.347656 108.867188 366.984375 108.019531 366.695312 107.125 C 366.632812 106.925781 366.640625 106.648438 366.507812 106.542969 C 365.992188 106.136719 365.488281 105.753906 365.609375 104.984375 C 365.617188 104.933594 365.476562 104.878906 365.429688 104.804688 C 365.03125 104.21875 364.285156 103.855469 364.292969 102.992188 C 364.296875 102.835938 364.015625 102.519531 363.929688 102.539062 C 363.21875 102.703125 363.234375 102.082031 362.957031 101.746094 C 362.414062 101.089844 362.320312 100.011719 361.21875 99.867188 C 361.171875 99.859375 361.089844 99.792969 361.089844 99.753906 C 361.078125 98.894531 359.953125 99.03125 359.796875 98.304688 C 359 97.804688 358.222656 97.261719 357.394531 96.8125 C 356.644531 96.402344 355.8125 96.144531 355.0625 95.734375 C 354.285156 95.3125 353.410156 95.324219 352.59375 95.054688 C 351.425781 94.664062 350.195312 94.5 348.921875 94.648438 C 347.351562 94.828125 346.910156 94.972656 345.855469 96.171875 C 345.800781 96.234375 345.71875 96.289062 345.632812 96.316406 C 344.753906 96.621094 344.378906 97.414062 343.996094 98.136719 C 343.363281 99.332031 342.875 100.601562 342.183594 101.773438 C 341.871094 102.300781 341.628906 102.871094 341.324219 103.480469 C 341.167969 103.386719 341.011719 103.292969 340.859375 103.203125 C 340.234375 104.433594 339.542969 105.632812 338.832031 106.796875 C 338.996094 107.054688 339.105469 107.339844 339.097656 107.679688 C 339.09375 107.917969 338.984375 108.15625 338.992188 108.394531 C 339.011719 109.449219 338.777344 110.382812 337.867188 111.039062 C 337.796875 111.089844 337.6875 111.183594 337.699219 111.230469 C 337.90625 111.910156 337.28125 111.886719 336.925781 112.113281 C 336.957031 112.269531 336.980469 112.410156 337.007812 112.554688 C 336.375 112.914062 336.375 112.914062 336.015625 113.699219 C 335.980469 113.777344 335.914062 113.875 335.847656 113.894531 C 335.445312 113.996094 335.398438 114.390625 335.179688 114.648438 C 334.558594 115.378906 334.109375 116.316406 333.09375 116.5625 C 332.894531 116.882812 333.074219 117.488281 332.570312 117.417969 C 332.039062 117.347656 331.960938 117.746094 331.714844 117.972656 C 331.480469 118.1875 331.320312 118.527344 331.054688 118.65625 C 330.644531 118.847656 330.367188 119.058594 330.246094 119.523438 C 330.105469 120.078125 329.207031 119.945312 329.148438 120.628906 C 329.148438 120.65625 329.042969 120.710938 329 120.703125 C 328.609375 120.601562 328.496094 120.871094 328.34375 121.136719 C 328.289062 121.234375 328.082031 121.230469 327.984375 121.316406 C 327.570312 121.6875 326.808594 121.648438 326.777344 122.410156 C 325.804688 122.144531 325.609375 123.230469 324.886719 123.378906 C 324.605469 123.4375 324.367188 123.722656 324.054688 123.941406 C 323.871094 123.882812 323.585938 123.703125 323.417969 124.132812 C 323.371094 124.25 323.230469 124.375 323.109375 124.410156 C 322.433594 124.621094 321.753906 124.800781 321.078125 125 C 320.6875 125.109375 320.273438 125.128906 319.949219 125.46875 C 319.796875 125.632812 319.386719 125.757812 319.214844 125.667969 C 318.652344 125.363281 318.171875 125.625 317.667969 125.765625 C 317.523438 125.804688 317.300781 125.929688 317.257812 125.882812 C 316.8125 125.410156 316.128906 125.933594 315.734375 125.546875 C 315.265625 125.085938 314.804688 125.308594 314.3125 125.371094 C 314.167969 125.390625 314.007812 125.234375 313.851562 125.160156 C 313.699219 125.085938 313.554688 125.015625 313.398438 124.941406 C 312.761719 126.441406 312.335938 126.34375 311.210938 126.0625 C 310.816406 125.960938 310.402344 125.925781 310 125.847656 C 309.386719 125.722656 308.738281 125.683594 308.175781 125.441406 C 307.015625 124.933594 305.898438 124.316406 304.761719 123.742188 C 304.71875 123.722656 304.699219 123.65625 304.65625 123.597656 C 304.75 123.539062 304.847656 123.480469 305.039062 123.363281 C 304.703125 123.214844 304.488281 123.039062 304.289062 123.054688 C 304.019531 123.074219 303.859375 123.117188 303.789062 122.78125 C 303.757812 122.65625 303.53125 122.558594 303.375 122.484375 C 302.90625 122.25 302.542969 121.953125 302.359375 121.421875 C 302.277344 121.1875 301.980469 120.941406 301.734375 120.867188 C 301.332031 120.742188 301.089844 120.523438 300.84375 120.1875 C 300.417969 119.601562 300.070312 118.917969 299.222656 118.75 C 298.839844 118.675781 298.503906 118.394531 298.148438 118.203125 C 298.097656 118.175781 298.066406 118.121094 298.007812 118.058594 C 298.042969 117.941406 298.082031 117.804688 298.136719 117.617188 C 297.890625 117.484375 297.460938 117.398438 297.402344 117.203125 C 297.1875 116.46875 296.539062 116.226562 296.007812 115.917969 C 295.558594 115.660156 295.460938 115.191406 295.105469 114.902344 C 294.84375 114.6875 294.640625 114.382812 294.460938 114.089844 C 294.148438 113.585938 293.9375 113 293.558594 112.554688 C 293.203125 112.140625 292.625 111.921875 292.25 111.519531 C 291.347656 110.558594 289.882812 110.105469 289.585938 108.59375 C 289.570312 108.515625 289.480469 108.453125 289.425781 108.378906 C 289.035156 107.84375 288.652344 107.300781 288.25 106.769531 C 288.097656 106.566406 287.914062 106.382812 287.742188 106.195312 C 287.339844 105.761719 286.726562 105.390625 286.585938 104.886719 C 286.320312 103.960938 285.710938 103.539062 285.039062 103.234375 C 284.578125 102.105469 283.964844 101.246094 282.828125 100.859375 C 282.890625 99.863281 282.457031 99.273438 281.476562 98.910156 C 281.195312 98.804688 280.902344 98.589844 280.734375 98.34375 C 280.429688 97.894531 280.230469 97.375 279.953125 96.90625 C 279.855469 96.734375 279.667969 96.613281 279.511719 96.480469 C 279.113281 96.132812 278.710938 95.796875 278.3125 95.453125 C 278.15625 95.320312 278.035156 95.136719 277.867188 95.035156 C 277.296875 94.699219 277.089844 94.15625 276.964844 93.554688 C 276.929688 93.382812 276.925781 93.164062 276.820312 93.050781 C 276.285156 92.476562 275.738281 91.914062 275.160156 91.390625 C 274.917969 91.171875 274.726562 91.019531 274.605469 90.660156 C 274.402344 90.058594 273.726562 89.714844 273.46875 89.085938 C 273.410156 88.949219 273.101562 88.925781 272.917969 88.835938 C 272.292969 88.527344 271.554688 88.378906 271.277344 87.589844 C 271.242188 87.492188 270.980469 87.476562 270.925781 87.457031 C 270.800781 87.015625 270.8125 86.527344 270.574219 86.265625 C 269.261719 84.828125 267.773438 83.574219 266.273438 82.335938 C 265.746094 81.902344 265.179688 81.507812 264.695312 81.03125 C 263.503906 79.851562 262.148438 78.902344 260.652344 78.175781 C 260.105469 77.910156 259.59375 77.679688 259.410156 77.03125 C 259.214844 77.121094 259.082031 77.179688 258.863281 77.28125 C 258.9375 76.722656 258.640625 76.5 258.25 76.5625 C 257.898438 76.621094 257.699219 76.46875 257.457031 76.296875 C 256.710938 75.761719 256 75.160156 255.195312 74.730469 C 253.914062 74.046875 252.605469 73.378906 251.242188 72.890625 C 249.746094 72.355469 248.363281 71.65625 247.050781 70.78125 C 246.828125 70.632812 246.566406 70.480469 246.316406 70.460938 C 245.449219 70.398438 244.835938 69.769531 244.050781 69.519531 C 243.320312 69.285156 242.640625 68.882812 241.910156 68.648438 C 239.90625 68.007812 237.875 67.476562 235.773438 67.261719 C 234.933594 67.175781 234.085938 67.132812 233.242188 67.054688 C 232.855469 67.019531 232.472656 66.960938 232.09375 66.890625 C 231.144531 66.714844 230.203125 66.484375 229.230469 66.777344 C 229.078125 66.824219 228.871094 66.707031 228.691406 66.652344 C 228.136719 66.492188 227.625 66.242188 227.09375 66.820312 C 226.785156 67.15625 226.273438 67.246094 225.777344 67.015625 C 225.386719 66.839844 225.019531 66.550781 224.542969 66.667969 C 224.464844 66.6875 224.390625 66.738281 224.304688 66.777344 C 224.328125 67.019531 224.355469 67.246094 224.390625 67.59375 C 224.125 67.523438 223.933594 67.507812 223.777344 67.425781 C 223.234375 67.15625 222.59375 66.917969 222.109375 67.242188 C 221.375 67.730469 220.625 68.167969 219.902344 68.570312 C 219.59375 68.421875 219.335938 68.261719 219.058594 68.175781 C 218.710938 68.074219 218.246094 68.085938 218.136719 68.433594 C 218.011719 68.839844 217.734375 68.882812 217.386719 69.066406 C 217.269531 68.511719 216.917969 68.398438 216.4375 68.558594 C 215.976562 68.707031 216.140625 69.101562 216.15625 69.46875 C 215.789062 69.132812 215.113281 69.003906 214.765625 69.246094 C 214.25 69.613281 213.652344 69.710938 213.070312 69.859375 C 212.457031 70.019531 212.203125 70.3125 212.289062 71.074219 C 211.488281 70.339844 210.761719 70.71875 210.019531 71.082031 C 209.652344 71.265625 209.257812 71.390625 208.882812 71.558594 C 208.589844 71.691406 208.261719 71.804688 208.351562 72.261719 C 207.664062 72.105469 207.203125 72.335938 206.921875 72.914062 C 205.917969 73.261719 205.007812 73.777344 204.082031 74.292969 C 203.671875 74.523438 203.40625 74.671875 203.417969 75.074219 C 202.851562 75.304688 202.339844 75.507812 201.863281 75.699219 C 201.886719 75.964844 201.902344 76.125 201.90625 76.191406 C 201.511719 76.25 201.117188 76.1875 200.910156 76.355469 C 200.402344 76.777344 199.679688 76.914062 199.335938 77.546875 C 199.296875 77.621094 199.222656 77.734375 199.164062 77.734375 C 198.574219 77.734375 198.246094 78.109375 197.835938 78.46875 C 197.074219 79.136719 196.140625 79.609375 195.382812 80.285156 C 194.722656 80.871094 194.152344 81.519531 193.320312 81.9375 C 192.664062 82.269531 192.160156 82.902344 191.59375 83.410156 C 190.945312 83.992188 190.304688 84.582031 189.640625 85.1875 C 189.660156 85.34375 189.683594 85.539062 189.703125 85.734375 C 189.1875 85.820312 188.621094 85.710938 188.488281 86.421875 C 188.464844 86.542969 188.226562 86.675781 188.070312 86.707031 C 187.738281 86.773438 187.570312 86.964844 187.414062 87.242188 C 187.277344 87.484375 187.039062 87.679688 186.828125 87.871094 C 186.183594 88.460938 185.453125 88.976562 184.894531 89.636719 C 184.347656 90.289062 183.675781 90.800781 183.132812 91.453125 C 182.300781 92.441406 181.335938 93.308594 180.484375 94.28125 C 180.019531 94.816406 179.332031 95.214844 179.238281 96.035156 C 179.226562 96.121094 179.074219 96.207031 178.972656 96.261719 C 177.820312 96.902344 177.324219 98.164062 176.375 99 C 176.339844 99.589844 175.660156 99.757812 175.519531 100.28125 C 174.507812 100.867188 173.964844 101.855469 173.355469 102.792969 C 173.21875 103 173.015625 103.167969 172.867188 103.371094 C 172.566406 103.769531 172.277344 104.175781 171.996094 104.582031 C 171.914062 104.703125 171.886719 104.941406 171.800781 104.957031 C 171.144531 105.078125 171.089844 105.679688 170.824219 106.113281 C 170.703125 106.3125 170.578125 106.511719 170.429688 106.691406 C 169.4375 107.898438 168.203125 108.929688 167.644531 110.457031 C 167.613281 110.550781 167.480469 110.605469 167.40625 110.691406 C 166.902344 111.265625 166.363281 111.8125 165.90625 112.425781 C 165.347656 113.179688 164.867188 113.996094 164.328125 114.769531 C 164.144531 115.03125 163.699219 115.230469 163.695312 115.46875 C 163.6875 116.007812 163.308594 116.25 163.015625 116.515625 C 162.09375 117.347656 161.550781 118.464844 160.898438 119.464844 C 160.242188 120.472656 159.285156 121.195312 158.683594 122.234375 C 158.40625 122.707031 158.121094 123.113281 158.171875 123.640625 C 157.859375 123.804688 157.496094 123.882812 157.3125 124.109375 C 156.714844 124.84375 156.175781 125.628906 155.625 126.402344 C 155.542969 126.511719 155.527344 126.675781 155.441406 126.777344 C 154.738281 127.589844 154.027344 128.402344 153.308594 129.207031 C 152.882812 129.683594 152.429688 130.136719 151.992188 130.601562 C 151.851562 130.753906 151.6875 130.898438 151.585938 131.074219 C 150.980469 132.140625 150.054688 132.929688 149.171875 133.730469 C 148.816406 134.054688 148.527344 134.296875 148.554688 134.753906 C 148.257812 134.855469 147.851562 134.875 147.789062 135.035156 C 147.503906 135.738281 146.75 135.851562 146.277344 136.316406 C 145.941406 136.644531 145.789062 136.90625 145.867188 137.359375 C 145.398438 137.386719 144.855469 137.199219 144.785156 137.882812 C 144.78125 137.925781 144.699219 137.964844 144.648438 137.992188 C 144.113281 138.285156 143.5625 138.558594 143.042969 138.878906 C 142.625 139.140625 142.265625 139.511719 141.832031 139.746094 C 141.398438 139.980469 140.855469 140.050781 140.863281 140.71875 C 140.863281 140.765625 140.726562 140.835938 140.644531 140.855469 C 140.085938 141.007812 139.527344 141.148438 138.835938 141.328125 C 138.695312 141.519531 138.457031 141.839844 138.199219 142.1875 C 137.78125 142.1875 137.226562 142.070312 136.757812 142.214844 C 136.167969 142.402344 135.601562 142.648438 134.984375 142.59375 C 134.765625 143.308594 134.566406 143.542969 134.039062 143.421875 C 133.4375 143.285156 132.875 143.304688 132.289062 143.421875 C 132.097656 143.460938 131.84375 143.445312 131.683594 143.34375 C 131.035156 142.949219 130.519531 143.292969 129.976562 143.597656 C 129.695312 143.40625 129.410156 143.207031 129.125 143.007812 C 128.742188 143.46875 128.550781 142.796875 128.167969 142.835938 C 127.679688 142.886719 127.105469 142.652344 126.652344 142.390625 C 125.308594 141.625 124 140.796875 122.6875 139.972656 C 122.011719 139.546875 121.351562 139.09375 120.703125 138.625 C 119.890625 138.035156 119.113281 137.398438 118.300781 136.816406 C 117.378906 136.160156 116.429688 135.550781 115.503906 134.90625 C 115.09375 134.617188 114.640625 134.34375 114.34375 133.960938 C 113.996094 133.515625 113.585938 133.230469 113.09375 132.992188 C 112.875 132.886719 112.660156 132.671875 112.558594 132.457031 C 112.371094 132.042969 112.070312 131.816406 111.679688 131.613281 C 111.355469 131.445312 111.082031 131.160156 110.800781 130.910156 C 110.667969 130.796875 110.582031 130.628906 110.445312 130.515625 C 109.5 129.730469 108.453125 129.074219 107.546875 128.238281 C 107.238281 127.953125 106.878906 127.710938 106.507812 127.503906 C 106.167969 127.3125 105.8125 127.179688 105.746094 126.722656 C 105.730469 126.625 105.628906 126.492188 105.539062 126.460938 C 104.902344 126.21875 104.511719 125.722656 104.085938 125.230469 C 103.855469 124.96875 103.378906 124.9375 103.089844 124.707031 C 102.777344 124.457031 102.589844 124.050781 102.28125 123.792969 C 101.703125 123.316406 100.929688 123.074219 100.609375 122.296875 C 100.550781 122.160156 100.320312 122.097656 100.171875 122 C 99.691406 121.6875 98.980469 121.675781 98.804688 120.949219 C 98.785156 120.863281 98.628906 120.792969 98.527344 120.742188 C 97.945312 120.46875 97.523438 119.882812 96.804688 119.863281 C 96.675781 119.859375 96.554688 119.644531 96.425781 119.53125 C 95.90625 119.085938 95.566406 118.4375 94.875 118.183594 C 94.605469 118.085938 94.328125 118 94.066406 117.910156 C 93.9375 117.714844 93.84375 117.421875 93.640625 117.265625 C 92.320312 116.261719 90.996094 115.253906 89.628906 114.308594 C 88.820312 113.753906 87.96875 113.21875 87.0625 112.859375 C 86.332031 112.570312 85.6875 112.183594 85.035156 111.777344 C 83.800781 111.011719 82.566406 110.238281 81.273438 109.582031 C 79.472656 108.667969 77.617188 107.855469 75.785156 107 C 73.871094 106.101562 71.953125 105.203125 70.039062 104.3125 C 69.851562 104.226562 69.640625 104.15625 69.4375 104.152344 C 68.441406 104.121094 67.683594 103.410156 66.695312 103.273438 C 65.667969 103.128906 64.699219 102.582031 63.675781 102.347656 C 62.519531 102.082031 61.332031 101.953125 60.152344 101.800781 C 58.769531 101.621094 57.382812 101.433594 55.992188 101.34375 C 54.785156 101.257812 53.570312 101.28125 52.359375 101.304688 C 52.09375 101.3125 51.828125 101.515625 51.542969 101.636719 C 51.328125 101.421875 51.066406 101.304688 50.691406 101.417969 C 50.199219 101.566406 49.726562 101.683594 49.429688 102.167969 C 49.136719 102.648438 48.632812 102.800781 48.265625 102.5 C 47.722656 102.054688 47.203125 102.140625 46.636719 102.417969 C 46.402344 102.535156 46.136719 102.582031 45.886719 102.660156 C 45.667969 102.730469 45.441406 102.785156 45.242188 102.890625 C 44.917969 103.058594 44.609375 103.261719 44.25 103.476562 C 44.339844 103.644531 44.445312 103.839844 44.613281 104.15625 L 43.820312 104.15625 C 43.695312 103.933594 43.644531 103.703125 43.53125 103.671875 C 43.351562 103.617188 43.109375 103.644531 42.933594 103.726562 C 42.078125 104.140625 41.234375 104.574219 40.402344 105.027344 C 40.300781 105.082031 40.25 105.261719 40.21875 105.398438 C 40.105469 105.859375 39.734375 106.097656 39.355469 105.980469 C 38.589844 105.738281 38.117188 106.304688 37.792969 106.671875 C 37.179688 107.359375 36.363281 107.734375 35.65625 108.234375 C 34.828125 108.820312 34.140625 109.582031 33.25 110.078125 C 33.113281 110.15625 33.046875 110.367188 32.949219 110.511719 C 33.121094 110.628906 33.269531 110.726562 33.535156 110.90625 C 32.324219 110.792969 31.96875 110.984375 31.679688 111.808594 C 31.332031 111.828125 31.023438 111.828125 30.78125 112.21875 C 30.527344 112.628906 29.851562 112.746094 29.90625 113.410156 C 29.90625 113.4375 29.820312 113.492188 29.769531 113.5 C 29.0625 113.578125 28.757812 114.179688 28.332031 114.617188 C 28.007812 114.953125 27.769531 115.371094 27.449219 115.710938 C 26.910156 116.285156 26.296875 116.792969 25.789062 117.394531 C 24.863281 118.488281 23.992188 119.632812 23.09375 120.75 C 22.109375 121.976562 21.277344 123.308594 20.382812 124.59375 C 19.738281 125.511719 19.1875 126.492188 18.515625 127.390625 C 18.027344 128.039062 17.699219 128.804688 17.285156 129.507812 C 16.84375 130.257812 16.335938 130.976562 15.929688 131.746094 C 15.09375 133.332031 14.292969 134.941406 13.496094 136.550781 C 13.492188 136.550781 13.492188 136.554688 13.492188 136.558594 C 10.199219 143.195312 10.085938 150.789062 7.230469 157.558594 C 7.1875 157.667969 7.203125 157.796875 7.183594 157.914062 C 7.074219 158.703125 6.964844 159.488281 6.847656 160.273438 C 6.773438 160.769531 6.804688 161.335938 6.566406 161.738281 C 6.269531 162.25 6.207031 162.808594 6.117188 163.324219 C 6.023438 163.855469 6.167969 164.429688 5.863281 164.945312 C 5.820312 165.019531 5.925781 165.167969 5.941406 165.289062 C 5.964844 165.433594 5.984375 165.585938 5.964844 165.734375 C 5.792969 167.058594 5.613281 168.382812 5.429688 169.703125 C 5.347656 170.261719 5.347656 170.863281 5.128906 171.363281 C 4.957031 171.75 4.917969 172.101562 4.964844 172.476562 C 5.011719 172.859375 5.144531 173.226562 5.203125 173.609375 C 5.242188 173.867188 5.296875 174.171875 5.203125 174.394531 C 4.859375 175.207031 5.160156 175.925781 5.441406 176.65625 C 5.546875 176.929688 5.71875 177.195312 5.757812 177.476562 C 5.902344 178.589844 6.007812 179.707031 6.128906 180.820312 C 6.25 181.941406 6.304688 183.070312 6.507812 184.175781 C 6.742188 185.421875 7.101562 186.644531 7.421875 187.875 C 7.644531 188.738281 7.914062 189.589844 8.132812 190.457031 C 8.292969 191.078125 8.453125 191.703125 8.515625 192.339844 C 8.574219 192.941406 8.691406 193.503906 9.011719 194.019531 C 9.082031 194.140625 9.230469 194.335938 9.191406 194.386719 C 8.804688 194.910156 9.285156 195.195312 9.480469 195.5625 C 9.566406 195.726562 9.695312 196.011719 9.632812 196.085938 C 9.339844 196.425781 9.582031 196.625 9.746094 196.863281 C 9.878906 197.050781 10.144531 197.304688 10.097656 197.433594 C 9.863281 198.0625 10.304688 198.429688 10.53125 198.902344 C 10.832031 199.535156 11.167969 200.1875 11.296875 200.867188 C 11.550781 202.199219 12.085938 203.386719 12.804688 204.511719 C 12.898438 204.660156 13.109375 204.800781 13.101562 204.933594 C 13.066406 205.558594 13.46875 205.992188 13.722656 206.484375 C 13.835938 206.710938 14.195312 206.914062 14.171875 207.089844 C 14.085938 207.726562 14.550781 208.074219 14.828125 208.492188 C 15.101562 208.90625 15.167969 209.449219 15.570312 209.761719 C 16 210.09375 16.257812 210.511719 16.46875 211 C 16.609375 211.320312 16.828125 211.636719 17.09375 211.863281 C 17.753906 212.429688 18.167969 213.164062 18.625 213.878906 C 18.828125 214.191406 19.042969 214.511719 19.3125 214.769531 C 20.007812 215.449219 20.738281 216.097656 21.457031 216.75 C 21.585938 216.867188 21.746094 217.015625 21.902344 217.027344 C 22.261719 217.054688 22.46875 217.238281 22.6875 217.5 C 22.894531 217.746094 23.183594 217.945312 23.476562 218.085938 C 24.804688 218.726562 26.054688 219.488281 27.503906 219.949219 C 28.75 220.347656 30.015625 220.667969 31.285156 220.914062 C 33.21875 221.285156 35.203125 221.234375 37.167969 221.121094 C 38.234375 221.0625 39.296875 220.890625 40.351562 220.722656 C 41.75 220.496094 43.148438 220.25 44.535156 219.964844 C 45.230469 219.824219 45.902344 219.582031 46.585938 219.382812 C 47.355469 219.160156 48.132812 218.964844 48.890625 218.695312 C 50.648438 218.074219 52.394531 217.417969 54.144531 216.769531 C 54.757812 216.542969 55.503906 216.453125 55.945312 216.035156 C 56.546875 215.46875 57.269531 215.453125 57.941406 215.195312 C 58.273438 215.066406 58.609375 214.953125 58.933594 214.800781 C 60.210938 214.191406 61.457031 213.507812 62.769531 212.984375 C 63.410156 212.726562 64.042969 212.582031 64.300781 211.722656 C 64.828125 212.136719 65.289062 212.03125 65.777344 211.8125 C 66.851562 211.324219 67.882812 210.761719 69.019531 210.398438 C 69.828125 210.140625 70.558594 209.652344 71.328125 209.261719 C 71.40625 209.222656 71.488281 209.144531 71.5625 209.152344 C 72.359375 209.222656 72.96875 208.738281 73.652344 208.464844 C 74.039062 208.3125 74.496094 208.285156 74.828125 208.066406 C 75.5 207.613281 76.261719 207.410156 77.003906 207.160156 C 77.90625 206.859375 78.84375 206.664062 79.761719 206.40625 C 81.058594 206.039062 82.3125 205.507812 83.679688 205.417969 C 84.425781 205.367188 85.167969 205.171875 85.902344 205.191406 C 87.054688 205.226562 88.230469 205.273438 89.347656 205.527344 C 90.628906 205.820312 91.941406 206.121094 93.074219 206.886719 C 93.414062 207.117188 93.804688 207.273438 94.164062 207.488281 C 94.992188 207.976562 96.015625 208.171875 96.542969 209.105469 C 96.59375 209.195312 96.742188 209.234375 96.847656 209.289062 C 97.847656 209.792969 98.5 210.671875 99.214844 211.488281 C 99.597656 211.925781 100.046875 212.3125 100.496094 212.691406 C 100.96875 213.085938 101.542969 213.375 101.679688 214.074219 C 101.710938 214.230469 101.886719 214.359375 102 214.492188 C 102.320312 214.867188 102.757812 215.1875 102.945312 215.621094 C 103.480469 216.835938 104.695312 217.488281 105.320312 218.625 C 105.695312 219.300781 106.421875 219.777344 106.507812 220.628906 C 106.515625 220.703125 106.589844 220.8125 106.652344 220.832031 C 107.21875 220.980469 107.09375 221.847656 107.761719 221.898438 C 107.8125 221.902344 107.847656 222.089844 107.890625 222.195312 C 108.160156 222.84375 108.617188 223.453125 109.113281 223.832031 C 109.621094 224.21875 109.933594 224.71875 110.402344 225.085938 C 110.28125 225.261719 110.1875 225.386719 110.089844 225.53125 C 111.042969 225.910156 110.996094 227.066406 111.789062 227.523438 C 111.796875 227.527344 111.777344 227.578125 111.78125 227.609375 C 111.828125 228.1875 112.269531 228.519531 112.621094 228.898438 C 112.890625 229.191406 113.386719 229.378906 113.492188 229.703125 C 113.734375 230.441406 114.101562 231.054688 114.625 231.605469 C 115.246094 232.253906 115.863281 232.910156 116.433594 233.597656 C 116.628906 233.828125 116.820312 234 117.078125 234.160156 C 117.445312 234.390625 117.792969 234.714844 118.03125 235.078125 C 118.4375 235.699219 118.820312 236.355469 119.082031 237.046875 C 119.300781 237.632812 119.921875 237.835938 120.132812 238.394531 C 120.234375 238.667969 120.339844 238.980469 120.546875 239.160156 C 121.265625 239.808594 122.199219 240.21875 122.644531 241.15625 C 122.667969 241.199219 122.746094 241.21875 122.800781 241.246094 C 123.300781 241.484375 123.414062 242.207031 124.074219 242.253906 C 124.132812 242.257812 124.226562 242.398438 124.21875 242.460938 C 124.140625 242.902344 124.390625 243.121094 124.734375 243.292969 C 125.070312 243.460938 124.941406 243.949219 125.402344 244.113281 C 126.160156 244.386719 126.726562 245.0625 127.125 245.679688 C 127.457031 246.195312 127.859375 246.339844 128.296875 246.582031 C 128.46875 246.675781 128.671875 246.773438 128.773438 246.925781 C 129.121094 247.457031 129.535156 247.910156 130.066406 248.253906 C 130.238281 248.363281 130.472656 248.457031 130.550781 248.617188 C 130.765625 249.078125 131.164062 249.234375 131.59375 249.390625 C 131.894531 249.5 132.347656 249.589844 132.441406 249.8125 C 132.640625 250.277344 133.054688 250.398438 133.382812 250.660156 C 133.675781 250.898438 134.210938 250.921875 134.140625 251.507812 C 134.136719 251.558594 134.367188 251.683594 134.496094 251.695312 C 134.695312 251.714844 134.898438 251.664062 135.101562 251.644531 C 135.285156 252.195312 135.605469 252.585938 136.082031 252.832031 C 136.265625 252.929688 136.535156 252.96875 136.628906 253.121094 C 137.191406 254.027344 138.082031 254.210938 139.035156 254.304688 C 139.132812 254.3125 139.234375 254.363281 139.3125 254.421875 C 139.53125 254.59375 139.710938 254.824219 139.949219 254.953125 C 140.863281 255.453125 141.832031 255.855469 142.703125 256.417969 C 143.386719 256.855469 144.042969 257.148438 144.863281 257.054688 C 145.003906 257.039062 145.273438 257.175781 145.292969 257.277344 C 145.386719 257.742188 145.761719 257.777344 146.09375 257.875 C 146.605469 258.035156 147.144531 258.113281 147.625 258.335938 C 149.097656 259.019531 150.6875 259.320312 152.257812 259.5 C 153.574219 259.652344 154.878906 259.941406 156.234375 259.953125 C 157.539062 259.964844 158.84375 260.042969 160.152344 259.964844 C 162.894531 259.804688 165.59375 259.441406 168.21875 258.585938 C 169.769531 258.085938 171.277344 257.511719 172.636719 256.59375 C 172.707031 256.542969 172.832031 256.539062 172.921875 256.558594 C 173.476562 256.679688 173.878906 256.417969 174.292969 256.097656 C 174.730469 255.753906 175.210938 255.46875 175.695312 255.191406 C 176.265625 254.867188 176.867188 254.597656 177.4375 254.269531 C 177.574219 254.191406 177.667969 253.992188 177.726562 253.832031 C 177.878906 253.398438 178.191406 253.261719 178.621094 253.214844 C 179.90625 253.078125 180.449219 251.984375 181.347656 251.1875 C 181.628906 251.035156 182.078125 250.902344 182.378906 250.609375 C 182.945312 250.046875 183.414062 249.394531 183.9375 248.792969 C 184.152344 248.546875 184.40625 248.136719 184.636719 248.140625 C 185.296875 248.148438 185.527344 247.644531 185.910156 247.3125 C 186.042969 247.195312 186.175781 247.078125 186.296875 246.957031 C 186.890625 246.375 187.476562 245.785156 188.136719 245.273438 C 188.25 245.183594 188.390625 245.050781 188.402344 244.929688 C 188.433594 244.589844 188.6875 244.457031 188.871094 244.238281 C 189.132812 243.914062 189.550781 243.855469 189.785156 243.617188 C 190.480469 242.90625 191.308594 242.292969 191.726562 241.335938 C 191.808594 241.148438 191.902344 240.953125 192.042969 240.808594 C 192.425781 240.40625 192.855469 240.050781 193.230469 239.644531 C 193.429688 239.429688 193.5 239 193.71875 238.925781 C 194.429688 238.671875 194.523438 238.121094 194.535156 237.460938 C 195.132812 237.453125 195.570312 237.28125 195.660156 236.648438 C 195.671875 236.554688 195.792969 236.460938 195.878906 236.390625 C 196.238281 236.097656 196.414062 235.59375 196.933594 235.492188 C 197.21875 234.660156 198.171875 234.355469 198.484375 233.535156 C 198.554688 233.34375 198.675781 233.242188 198.546875 232.992188 C 198.367188 232.652344 198.589844 232.371094 198.941406 232.253906 C 199.191406 232.171875 199.453125 232.128906 199.683594 232.078125 C 199.9375 231.652344 199.964844 231.105469 200.597656 231.039062 C 200.742188 231.023438 200.855469 230.679688 200.984375 230.488281 C 201.175781 230.203125 201.3125 229.808594 201.582031 229.652344 C 201.910156 229.460938 202.152344 229.277344 202.316406 228.929688 C 202.464844 228.617188 202.671875 228.3125 202.917969 228.074219 C 203.664062 227.359375 204.34375 226.605469 204.78125 225.65625 C 204.867188 225.46875 204.964844 225.242188 205.121094 225.136719 C 205.832031 224.660156 206.039062 223.949219 206.078125 223.164062 C 206.785156 223.234375 207.199219 223.074219 207.460938 222.578125 C 207.605469 222.292969 207.589844 221.90625 207.773438 221.660156 C 207.960938 221.410156 208.355469 221.320312 208.570312 221.078125 C 209.136719 220.445312 209.664062 219.773438 210.1875 219.101562 C 210.308594 218.945312 210.355469 218.726562 210.414062 218.53125 C 210.492188 218.277344 210.550781 218.015625 210.625 217.726562 C 211.082031 217.785156 211.441406 217.707031 211.5625 217.222656 C 211.578125 217.148438 211.652344 217.058594 211.722656 217.027344 C 212.484375 216.671875 212.832031 215.941406 213.285156 215.3125 C 213.5625 214.925781 213.785156 214.453125 214.152344 214.203125 C 214.484375 213.976562 214.5625 213.722656 214.617188 213.410156 C 214.660156 213.148438 214.667969 212.882812 214.691406 212.59375 C 214.945312 212.53125 215.175781 212.488281 215.398438 212.421875 C 215.625 212.355469 215.84375 212.265625 216.085938 212.175781 C 216.175781 211.933594 216.269531 211.691406 216.332031 211.53125 C 216.621094 211.398438 216.929688 211.355469 217.015625 211.195312 C 217.1875 210.871094 217.238281 210.484375 217.328125 210.160156 C 217.554688 209.976562 217.785156 209.804688 218 209.617188 C 218.203125 209.4375 218.355469 209.175781 218.585938 209.070312 C 219.046875 208.859375 219.398438 208.597656 219.507812 208.074219 C 219.523438 208 219.601562 207.929688 219.664062 207.871094 C 220.296875 207.289062 221.039062 206.808594 221.4375 206 C 221.488281 205.898438 221.59375 205.804688 221.695312 205.765625 C 222.292969 205.539062 222.539062 205.058594 222.640625 204.394531 C 223.566406 204.5625 223.699219 203.613281 224.289062 203.261719 C 224.890625 202.90625 225.515625 202.511719 225.46875 201.75 C 225.847656 201.539062 226.175781 201.410156 226.445312 201.199219 C 227.226562 200.589844 227.921875 199.847656 228.761719 199.339844 C 229.613281 198.828125 229.785156 197.554688 230.96875 197.460938 C 231.050781 197.457031 231.117188 197.285156 231.191406 197.191406 C 231.742188 196.503906 232.3125 195.832031 233.160156 195.492188 C 233.574219 195.328125 233.996094 195.175781 234.128906 194.667969 C 234.152344 194.582031 234.308594 194.535156 234.40625 194.46875 C 234.671875 194.292969 234.9375 194.113281 235.203125 193.933594 C 235.789062 193.542969 236.335938 193.058594 236.96875 192.785156 C 237.574219 192.527344 238.082031 192.246094 238.246094 191.777344 C 238.875 191.492188 239.375 191.308594 239.832031 191.046875 C 240.378906 190.726562 240.875 190.351562 241.496094 190.117188 C 242.84375 189.609375 243.917969 188.503906 245.394531 188.238281 C 245.449219 188.226562 245.492188 188.164062 245.546875 188.140625 C 246.566406 187.738281 247.566406 187.253906 248.617188 186.957031 C 249.667969 186.660156 250.703125 186.308594 251.785156 186.085938 C 252.683594 185.90625 253.566406 185.679688 254.480469 185.601562 C 255.34375 185.527344 256.203125 185.464844 257.0625 185.390625 C 258.804688 185.242188 260.542969 185.140625 262.261719 185.59375 C 262.351562 185.617188 262.441406 185.621094 262.53125 185.628906 C 264.117188 185.714844 265.628906 186.179688 267.144531 186.589844 C 268.320312 186.910156 269.460938 187.355469 270.613281 187.757812 C 270.921875 187.863281 271.222656 188.003906 271.511719 188.160156 C 272.007812 188.425781 272.464844 188.796875 273.09375 188.621094 C 273.167969 188.601562 273.320312 188.628906 273.34375 188.675781 C 273.632812 189.253906 274.257812 189.28125 274.734375 189.550781 C 275.816406 190.152344 276.878906 190.789062 277.960938 191.378906 C 278.640625 191.746094 279.367188 192.027344 280.042969 192.40625 C 280.578125 192.707031 281.054688 193.109375 281.578125 193.429688 C 282.25 193.847656 283.027344 194.09375 283.578125 194.71875 C 283.746094 194.910156 284.027344 195.011719 284.273438 195.113281 C 284.847656 195.355469 285.449219 195.507812 285.8125 196.109375 C 285.925781 196.300781 286.285156 196.335938 286.527344 196.453125 C 287.089844 196.722656 287.726562 196.90625 288.195312 197.289062 C 288.773438 197.761719 289.34375 198.140625 290.046875 198.449219 C 291.425781 199.054688 292.679688 199.941406 294.035156 200.613281 C 295.070312 201.121094 296.175781 201.480469 297.25 201.902344 C 297.386719 201.957031 297.53125 201.996094 297.671875 202.039062 C 298.828125 202.40625 299.964844 202.863281 301.144531 203.121094 C 303.476562 203.632812 305.867188 203.644531 308.242188 203.675781 C 308.835938 203.683594 309.429688 203.5625 310.023438 203.523438 C 311.511719 203.425781 312.984375 203.273438 314.375 202.679688 C 314.480469 202.632812 314.59375 202.59375 314.707031 202.59375 C 316.140625 202.601562 317.410156 201.9375 318.730469 201.527344 C 320.070312 201.109375 321.332031 200.4375 322.613281 199.847656 C 322.980469 199.679688 323.28125 199.316406 323.65625 199.230469 C 324.238281 199.097656 324.746094 198.894531 325.261719 198.578125 C 325.960938 198.15625 326.675781 197.789062 327.035156 197.195312 C 327.617188 197.050781 328.109375 197.015625 328.511719 196.8125 C 329.085938 196.523438 329.570312 196.050781 330.148438 195.761719 C 331.273438 195.191406 332.296875 194.53125 332.789062 193.265625 C 333.484375 193.46875 333.976562 193.117188 334.4375 192.742188 C 334.890625 192.371094 335.300781 191.949219 335.746094 191.570312 C 336.4375 190.984375 337.394531 190.660156 337.683594 189.660156 C 337.710938 189.566406 337.859375 189.503906 337.957031 189.441406 C 338.355469 189.191406 338.757812 188.953125 339.234375 188.660156 C 339.261719 188.503906 339.304688 188.25 339.324219 188.136719 C 339.828125 187.894531 340.296875 187.789062 340.59375 187.503906 C 341.515625 186.621094 342.324219 185.636719 343.308594 184.800781 C 343.949219 184.257812 344.394531 183.488281 344.945312 182.835938 C 345.371094 182.328125 345.761719 181.769531 346.273438 181.367188 C 347.199219 180.644531 347.863281 179.804688 347.972656 178.5 C 348.792969 178.609375 348.992188 177.773438 349.59375 177.445312 C 350.148438 177.140625 350.441406 176.359375 350.851562 175.789062 C 350.796875 175.613281 350.738281 175.433594 350.671875 175.238281 C 351.332031 174.949219 352.003906 174.746094 351.992188 173.902344 C 352.449219 173.613281 352.28125 172.90625 352.875 172.65625 C 353.175781 172.527344 353.5 172.167969 353.566406 171.859375 C 353.644531 171.472656 353.859375 171.253906 354.085938 170.988281 C 354.367188 170.652344 354.609375 170.289062 354.859375 169.929688 C 354.957031 169.792969 355.011719 169.628906 355.097656 169.480469 C 355.335938 169.074219 355.59375 168.683594 355.820312 168.273438 C 356.046875 167.867188 356.132812 167.398438 356.585938 167.109375 C 356.785156 166.980469 356.84375 166.597656 356.914062 166.3125 C 357.0625 165.738281 357.222656 165.191406 357.675781 164.742188 C 357.953125 164.464844 358.148438 164.074219 358.292969 163.699219 C 358.597656 162.894531 358.984375 162.117188 359.367188 161.359375 C 359.707031 160.683594 360.085938 160.0625 360.199219 159.289062 C 360.238281 159.039062 360.519531 158.828125 360.683594 158.59375 C 360.792969 158.433594 360.914062 158.277344 360.988281 158.097656 C 361.398438 157.101562 361.785156 156.09375 362.199219 155.09375 C 362.320312 154.792969 362.488281 154.507812 362.644531 154.222656 C 362.726562 154.066406 362.863281 153.929688 362.914062 153.765625 C 363.136719 153.035156 363.300781 152.289062 363.550781 151.570312 C 364.035156 150.171875 364.566406 148.792969 365.066406 147.398438 C 365.203125 147.011719 365.269531 146.597656 365.398438 146.207031 C 365.753906 145.082031 366.136719 143.964844 366.484375 142.835938 C 366.726562 142.046875 366.925781 141.242188 367.144531 140.441406 C 367.445312 139.351562 367.765625 138.269531 368.042969 137.171875 C 368.222656 136.457031 368.316406 135.71875 368.488281 135 C 368.722656 134.015625 369.105469 133.054688 369.230469 132.0625 C 369.597656 129.167969 369.933594 126.265625 369.960938 123.339844 C 369.964844 122.921875 369.996094 122.503906 370 122.085938 C 370 120.8125 370.125 119.53125 369.832031 118.261719 Z M 197.675781 96.898438 C 197.65625 96.75 197.636719 96.605469 197.613281 96.457031 L 197.808594 96.402344 C 197.835938 96.546875 197.871094 96.6875 197.882812 96.828125 C 197.882812 96.847656 197.746094 96.875 197.675781 96.898438 Z M 197.675781 96.898438 " fill-opacity="1" fill-rule="nonzero"/></g><path fill="#fdfae9" d="M 220.273438 67.355469 C 220.597656 67.429688 220.761719 67.46875 221.089844 67.542969 C 220.714844 67.78125 220.519531 67.910156 220.273438 67.355469 Z M 220.273438 67.355469 " fill-opacity="1" fill-rule="nonzero"/></svg>